<?xml version="1.0" encoding="utf-8"?>
<svg version="1.1" xmlns:xlink="http://www.w3.org/1999/xlink" width="100px" height="60px" xmlns="http://www.w3.org/2000/svg">
  <defs>
    <linearGradient gradientUnits="userSpaceOnUse" x1="2636" y1="2948" x2="2636" y2="3008" id="LinearGradient299">
      <stop id="Stop300" stop-color="#ffffff" offset="0" />
      <stop id="Stop301" stop-color="#f2f2f2" offset="0" />
      <stop id="Stop302" stop-color="#e4e4e4" offset="1" />
      <stop id="Stop303" stop-color="#ffffff" offset="1" />
    </linearGradient>
  </defs>
  <g transform="matrix(1 0 0 1 -2586 -2948 )">
    <path d="M 2636 2948  C 2664 2948  2686 2961.2  2686 2978  C 2686 2994.8  2664 3008  2636 3008  C 2608 3008  2586 2994.8  2586 2978  C 2586 2961.2  2608 2948  2636 2948  Z " fill-rule="nonzero" fill="url(#LinearGradient299)" stroke="none" />
    <path d="M 2636 2948.5  C 2663.72 2948.5  2685.5 2961.48  2685.5 2978  C 2685.5 2994.52  2663.72 3007.5  2636 3007.5  C 2608.28 3007.5  2586.5 2994.52  2586.5 2978  C 2586.5 2961.48  2608.28 2948.5  2636 2948.5  Z " stroke-width="1" stroke="#797979" fill="none" />
  </g>
</svg>