<?xml version="1.0" encoding="utf-8"?>
<svg version="1.1" xmlns:xlink="http://www.w3.org/1999/xlink" width="18px" height="17px" xmlns="http://www.w3.org/2000/svg">
  <g transform="matrix(1 0 0 1 -1108 -212 )">
    <path d="M 17.8196392785571 7.81366459627329  C 17.939879759519 7.93098688750863  18 8.06590752242926  18 8.2184265010352  C 18 8.37094547964113  17.939879759519 8.50586611456177  17.8196392785571 8.6231884057971  L 9.41482965931864 16.824016563147  C 9.29458917835671 16.9413388543823  9.1563126252505 17  9 17  C 8.8436873747495 17  8.70541082164329 16.9413388543823  8.58517034068136 16.824016563147  L 0.180360721442886 8.6231884057971  C 0.0601202404809621 8.50586611456177  0 8.37094547964113  0 8.2184265010352  C 0 8.06590752242926  0.0601202404809621 7.93098688750863  0.180360721442886 7.81366459627329  L 1.08216432865731 6.93374741200828  C 1.20240480961924 6.81642512077295  1.34068136272545 6.75776397515528  1.49699398797595 6.75776397515528  C 1.65330661322645 6.75776397515528  1.79158316633267 6.81642512077295  1.91182364729459 6.93374741200828  L 9 13.8498964803313  L 16.0881763527054 6.93374741200828  C 16.2084168336673 6.81642512077295  16.3466933867735 6.75776397515528  16.503006012024 6.75776397515528  C 16.6593186372746 6.75776397515528  16.7975951903808 6.81642512077295  16.9178356713427 6.93374741200828  L 17.8196392785571 7.81366459627329  Z M 17.8196392785571 1.05590062111801  C 17.939879759519 1.17322291235334  18 1.30814354727398  18 1.46066252587992  C 18 1.61318150448585  17.939879759519 1.74810213940649  17.8196392785571 1.86542443064182  L 9.41482965931864 10.0662525879917  C 9.29458917835671 10.1835748792271  9.1563126252505 10.2422360248447  9 10.2422360248447  C 8.8436873747495 10.2422360248447  8.70541082164329 10.1835748792271  8.58517034068136 10.0662525879917  L 0.180360721442886 1.86542443064182  C 0.0601202404809621 1.74810213940649  0 1.61318150448585  0 1.46066252587992  C 0 1.30814354727398  0.0601202404809621 1.17322291235334  0.180360721442886 1.05590062111801  L 1.08216432865731 0.175983436853002  C 1.20240480961924 0.058661145617666  1.34068136272545 0  1.49699398797595 0  C 1.65330661322645 0  1.79158316633267 0.058661145617666  1.91182364729459 0.175983436853002  L 9 7.09213250517598  L 16.0881763527054 0.175983436853002  C 16.2084168336673 0.058661145617666  16.3466933867735 0  16.503006012024 0  C 16.6593186372746 0  16.7975951903808 0.058661145617666  16.9178356713427 0.175983436853002  L 17.8196392785571 1.05590062111801  Z " fill-rule="nonzero" fill="#1890ff" stroke="none" transform="matrix(1 0 0 1 1108 212 )" />
  </g>
</svg>