<?xml version="1.0" encoding="utf-8"?>
<svg version="1.1" xmlns:xlink="http://www.w3.org/1999/xlink" width="23px" height="19px" xmlns="http://www.w3.org/2000/svg">
  <g transform="matrix(1 0 0 1 -236 -848 )">
    <path d="M 19.6939281288724 10.8550272798129  C 19.7034283353986 10.8747726682255  19.7081784386617 10.9043907508444  19.7081784386617 10.9438815276695  L 19.7081784386617 18.0522213561964  C 19.7081784386617 18.3089114055599  19.6179264766625 18.5310470252013  19.4374225526642 18.7186282151208  C 19.2569186286658 18.9062094050403  19.0431639818257 19  18.7961586121437 19  L 13.3240396530359 19  L 13.3240396530359 13.3133281371785  L 9.67596034696406 13.3133281371785  L 9.67596034696406 19  L 4.20384138785626 19  C 3.95683601817431 19  3.74308137133416 18.9062094050403  3.56257744733581 18.7186282151208  C 3.38207352333746 18.5310470252013  3.29182156133829 18.3089114055599  3.29182156133829 18.0522213561964  L 3.29182156133829 10.9438815276695  C 3.29182156133829 10.9340088334632  3.29419661296985 10.9191997921538  3.29894671623296 10.8994544037412  C 3.30369681949608 10.8797090153287  3.30607187112763 10.8648999740192  3.30607187112763 10.8550272798129  L 11.5 3.83554169914263  L 19.6939281288724 10.8550272798129  Z M 22.9857496902107 9.57404520654716  C 22.9952498967369 9.70732657833203  22.9619991738951 9.82333073525591  22.8859975216853 9.92205767731878  L 22.002478314746 11.0179267342167  C 21.9264766625361 11.1067809820733  21.8267244940107 11.1610808002078  21.7032218091698 11.1808261886204  L 21.6604708798017 11.1808261886204  C 21.5369681949608 11.1808261886204  21.4372160264354 11.1462717588984  21.3612143742255 11.0771628994544  L 11.5 2.5323460639127  L 1.63878562577447 11.0771628994544  C 1.52478314745973 11.1561444531047  1.41078066914498 11.1906988828267  1.29677819083024 11.1808261886204  C 1.17327550598926 11.1610808002078  1.07352333746386 11.1067809820733  0.997521685254027 11.0179267342167  L 0.114002478314746 9.92205767731878  C 0.0380008261049153 9.82333073525591  0.00475010326311445 9.70732657833203  0.0142503097893432 9.57404520654716  C 0.0237505163155721 9.44076383476228  0.0760016522098307 9.33463237204469  0.171003717472119 9.25565081839439  L 10.4169764560099 0.385035074045207  C 10.7209830648492 0.128345024681734  11.0819909128459 0  11.5 0  C 11.9180090871541 0  12.2790169351508 0.128345024681734  12.5830235439901 0.385035074045207  L 16.0600991325898 3.40607950116913  L 16.0600991325898 0.518316445830085  C 16.0600991325898 0.380098726942061  16.1028500619579 0.266562743569758  16.1883519206939 0.177708495713173  C 16.27385377943 0.0888542478565866  16.3831061544816 0.0444271239282933  16.5161090458488 0.0444271239282933  L 19.2521685254027 0.0444271239282933  C 19.3851714167699 0.0444271239282933  19.4944237918216 0.0888542478565866  19.5799256505576 0.177708495713173  C 19.6654275092937 0.266562743569758  19.7081784386617 0.380098726942061  19.7081784386617 0.518316445830085  L 19.7081784386617 6.56040530007794  L 22.8289962825279 9.25565081839439  C 22.9239983477902 9.33463237204469  22.9762494836844 9.44076383476228  22.9857496902107 9.57404520654716  Z " fill-rule="nonzero" fill="#aeaeae" stroke="none" transform="matrix(1 0 0 1 236 848 )" />
  </g>
</svg>