<?xml version="1.0" encoding="utf-8"?>
<svg version="1.1" xmlns:xlink="http://www.w3.org/1999/xlink" width="116px" height="32px" xmlns="http://www.w3.org/2000/svg">
  <defs>
    <mask fill="white" id="clip115">
      <path d="M 116 27.4285714285714  L 116 4.57142857142857  C 116 2.01142857142857  112.81 0  108.75 0  L 0 0  L 0 32  L 108.75 32  C 112.81 32  116 29.9885714285714  116 27.4285714285714  Z " fill-rule="evenodd" />
    </mask>
  </defs>
  <g transform="matrix(1 0 0 1 -779 -111 )">
    <path d="M 116 27.4285714285714  L 116 4.57142857142857  C 116 2.01142857142857  112.81 0  108.75 0  L 0 0  L 0 32  L 108.75 32  C 112.81 32  116 29.9885714285714  116 27.4285714285714  Z " fill-rule="nonzero" fill="#ffffff" stroke="none" transform="matrix(1 0 0 1 779 111 )" />
    <path d="M 116 27.4285714285714  L 116 4.57142857142857  C 116 2.01142857142857  112.81 0  108.75 0  L 0 0  L 0 32  L 108.75 32  C 112.81 32  116 29.9885714285714  116 27.4285714285714  Z " stroke-width="2" stroke="#1890ff" fill="none" transform="matrix(1 0 0 1 779 111 )" mask="url(#clip115)" />
  </g>
</svg>