<?xml version="1.0" encoding="utf-8"?>
<svg version="1.1" xmlns:xlink="http://www.w3.org/1999/xlink" width="130px" height="32px" xmlns="http://www.w3.org/2000/svg">
  <defs>
    <mask fill="white" id="clip85">
      <path d="M 130 27.4285714285714  L 130 4.57142857142857  C 130 2.01142857142857  126.425 0  121.875 0  L 0 0  L 0 32  L 121.875 32  C 126.425 32  130 29.9885714285714  130 27.4285714285714  Z " fill-rule="evenodd" />
    </mask>
  </defs>
  <g transform="matrix(1 0 0 1 -652 -111 )">
    <path d="M 130 27.4285714285714  L 130 4.57142857142857  C 130 2.01142857142857  126.425 0  121.875 0  L 0 0  L 0 32  L 121.875 32  C 126.425 32  130 29.9885714285714  130 27.4285714285714  Z " fill-rule="nonzero" fill="#ffffff" stroke="none" transform="matrix(1 0 0 1 652 111 )" />
    <path d="M 130 27.4285714285714  L 130 4.57142857142857  C 130 2.01142857142857  126.425 0  121.875 0  L 0 0  L 0 32  L 121.875 32  C 126.425 32  130 29.9885714285714  130 27.4285714285714  Z " stroke-width="2" stroke="#797979" fill="none" transform="matrix(1 0 0 1 652 111 )" mask="url(#clip85)" />
  </g>
</svg>