<?xml version="1.0" encoding="utf-8"?>
<svg version="1.1" xmlns:xlink="http://www.w3.org/1999/xlink" width="40px" height="50px" xmlns="http://www.w3.org/2000/svg">
  <defs>
    <filter x="830px" y="13px" width="40px" height="50px" filterUnits="userSpaceOnUse" id="filter12">
      <feOffset dx="1" dy="1" in="SourceAlpha" result="shadowOffsetInner" />
      <feGaussianBlur stdDeviation="2.5" in="shadowOffsetInner" result="shadowGaussian" />
      <feComposite in2="shadowGaussian" operator="atop" in="SourceAlpha" result="shadowComposite" />
      <feColorMatrix type="matrix" values="0 0 0 0 0  0 0 0 0 0  0 0 0 0 0  0 0 0 0.698039215686274 0  " in="shadowComposite" />
    </filter>
    <g id="widget13">
      <path d="M 849 56.0369284683536  C 843.2 46.4073405959099  834.5 40.6295878724437  834.5 31  C 834.5 25.9857142857143  837.4 17.5  849 17.5  C 860.6 17.5  863.5 25.9857142857143  863.5 31  C 863.5 40.6295878724437  854.8 46.4073405959099  849 56.0369284683536  Z " fill-rule="nonzero" fill="#009dd9" stroke="none" />
      <path d="M 849 57  C 843 47  834 41  834 31  C 834 25.8  837 17  849 17  C 861 17  864 25.8  864 31  C 864 41  855 47  849 57  Z M 849 55.0738569367072  C 854.6 45.8146811918198  863 40.2591757448874  863 31  C 863 26.1714285714286  860.2 18  849 18  C 837.8 18  835 26.1714285714286  835 31  C 835 40.2591757448874  843.4 45.8146811918198  849 55.0738569367072  Z " fill-rule="nonzero" fill="#ffffff" stroke="none" />
    </g>
  </defs>
  <g transform="matrix(1 0 0 1 -830 -13 )">
    <use xlink:href="#widget13" filter="url(#filter12)" />
    <use xlink:href="#widget13" />
  </g>
</svg>