<?xml version="1.0" encoding="utf-8"?>
<svg version="1.1" xmlns:xlink="http://www.w3.org/1999/xlink" width="34px" height="36px" xmlns="http://www.w3.org/2000/svg">
  <g transform="matrix(1 0 0 1 -31 -1122 )">
    <path d="M 33.2493206521739 14.4300385109114  C 33.7497735507246 15.007702182285  34 15.7047496790757  34 16.5211810012837  L 34 19.4788189987163  C 34 20.2952503209243  33.7497735507246 20.992297817715  33.2493206521739 21.5699614890886  C 32.7488677536232 22.1476251604621  32.0982789855073 22.4364569961489  31.2975543478261 22  L 15.0366847826087 22  L 21.804347826087 29.2297817715019  C 22.3894927536232 29.7843388960205  22.6820652173913 30.4775353016688  22.6820652173913 31.3093709884467  C 22.6820652173913 32.1412066752247  22.3894927536232 32.8344030808729  21.804347826087 33.3889602053915  L 20.0720108695652 35.1450577663671  C 19.5022644927536 35.7150192554557  18.8093297101449 36  17.9932065217391 36  C 17.192481884058 36  16.491847826087 35.7150192554557  15.8913043478261 35.1450577663671  L 0.854619565217391 20.0795892169448  C 0.284873188405797 19.5096277278562  0 18.816431322208  0 18  C 0 17.198973042362  0.284873188405797 16.4980744544288  0.854619565217391 15.8973042362003  L 15.8913043478261 0.878048780487806  C 16.4764492753623 0.292682926829266  17.1770833333333 0  17.9932065217391 0  C 18.7939311594203 0  19.486865942029 0.292682926829266  20.0720108695652 0.878048780487806  L 21.804347826087 2.58793324775353  C 22.3894927536232 3.17329910141207  22.6820652173913 3.87419768934531  22.6820652173913 4.69062901155327  C 22.6820652173913 5.50706033376123  22.3894927536232 6.20795892169448  21.804347826087 6.79332477535302  L 15.0366847826087 14  L 31.2975543478261 14  C 32.0982789855073 13.5635430038511  32.7488677536232 13.8523748395379  33.2493206521739 14.4300385109114  Z " fill-rule="nonzero" fill="#a1a1a1" stroke="none" transform="matrix(1 0 0 1 31 1122 )" />
  </g>
</svg>