<?xml version="1.0" encoding="utf-8"?>
<svg version="1.1" xmlns:xlink="http://www.w3.org/1999/xlink" width="19px" height="20px" xmlns="http://www.w3.org/2000/svg">
  <g transform="matrix(1 0 0 1 -50 -6630 )">
    <path d="M 11.2505175983437 9.53907815631263  C 11.3816425120773 9.67267869071476  11.4472049689441 9.82631930527722  11.4472049689441 10  C 11.4472049689441 10.1736806947228  11.3816425120773 10.3273213092852  11.2505175983437 10.4609218436874  L 2.08488612836439 19.7995991983968  C 1.95376121463078 19.9331997327989  1.80296756383713 20  1.63250517598344 20  C 1.46204278812974 20  1.31124913733609 19.9331997327989  1.18012422360248 19.7995991983968  L 0.196687370600414 18.7975951903808  C 0.0655624568668047 18.6639946559786  0 18.5103540414162  0 18.3366733466934  C 0 18.1629926519706  0.0655624568668047 18.0093520374081  0.196687370600414 17.875751503006  L 7.92650103519669 10  L 0.196687370600414 2.12424849699399  C 0.0655624568668047 1.99064796259185  0 1.83700734802939  0 1.66332665330661  C 0 1.48964595858383  0.0655624568668047 1.33600534402137  0.196687370600414 1.20240480961924  L 1.18012422360248 0.200400801603207  C 1.31124913733609 0.0668002672010681  1.46204278812974 0  1.63250517598344 0  C 1.80296756383713 0  1.95376121463078 0.0668002672010681  2.08488612836439 0.200400801603207  L 11.2505175983437 9.53907815631263  Z M 18.8033126293996 9.53907815631263  C 18.9344375431332 9.67267869071476  19 9.82631930527722  19 10  C 19 10.1736806947228  18.9344375431332 10.3273213092852  18.8033126293996 10.4609218436874  L 9.63768115942029 19.7995991983968  C 9.50655624568668 19.9331997327989  9.35576259489303 20  9.18530020703934 20  C 9.01483781918565 20  8.864044168392 19.9331997327989  8.73291925465838 19.7995991983968  L 7.74948240165631 18.7975951903808  C 7.61835748792271 18.6639946559786  7.5527950310559 18.5103540414162  7.5527950310559 18.3366733466934  C 7.5527950310559 18.1629926519706  7.61835748792271 18.0093520374081  7.74948240165631 17.875751503006  L 15.4792960662526 10  L 7.74948240165631 2.12424849699399  C 7.61835748792271 1.99064796259185  7.5527950310559 1.83700734802939  7.5527950310559 1.66332665330661  C 7.5527950310559 1.48964595858383  7.61835748792271 1.33600534402137  7.74948240165631 1.20240480961924  L 8.73291925465838 0.200400801603207  C 8.864044168392 0.0668002672010681  9.01483781918565 0  9.18530020703934 0  C 9.35576259489303 0  9.50655624568668 0.0668002672010681  9.63768115942029 0.200400801603207  L 18.8033126293996 9.53907815631263  Z " fill-rule="nonzero" fill="#ffffff" stroke="none" transform="matrix(1 0 0 1 50 6630 )" />
  </g>
</svg>