<?xml version="1.0" encoding="utf-8"?>
<svg version="1.1" xmlns:xlink="http://www.w3.org/1999/xlink" width="32px" height="28px" xmlns="http://www.w3.org/2000/svg">
  <g transform="matrix(1 0 0 1 -339 -21 )">
    <path d="M 27.4002478314746 15.9968823070928  C 27.4134655101198 16.0259807742271  27.4200743494424 16.0696284749286  27 16.1278254091972  L 27 26.6032735775526  C 27.4200743494424 26.9815536502988  27.2945064023131 27.3089114055599  27.0433705080545 27.5853468433359  C 26.792234613796 27.861782281112  26.4948368442792 28  26.1511771995043 28  L 18.5377942998761 28  L 18.5377942998761 19.6196414653157  L 13.4622057001239 19.6196414653157  L 13.4622057001239 28  L 5.84882280049566 28  C 5.50516315572078 28  5.20776538620405 27.861782281112  4.95662949194548 27.5853468433359  C 4.70549359768691 27.3089114055599  4.57992565055762 26.9815536502988  5 26.6032735775526  L 5 16.1278254091972  C 4.57992565055762 16.11327617563  4.58323007021892 16.0914523252793  4.58983890954151 16.062353858145  C 4.59644774886411 16.0332553910107  4.5997521685254 16.0114315406599  4.5997521685254 15.9968823070928  L 16 5.65237724084178  L 27.4002478314746 15.9968823070928  Z M 31.9801734820322 14.1091192517537  C 31.9933911606774 14.3055339049104  31.9471292854193 14.4764873993245  31.8413878562577 14.6219797349961  L 30.6121437422553 16.2369446609509  C 30.5064023130938 16.3678877630553  30.3676166873193 16.4479085476747  30.1957868649318 16.477007014809  L 30.1363073110285 16.477007014809  C 29.9644774886411 16.477007014809  29.8256918628666 16.426084697324  29.7199504337051 16.3242400623539  L 16 3.73187840997662  L 2.28004956629492 16.3242400623539  C 2.12143742255266 16.4406339308911  1.96282527881041 16.4915562483762  1.80421313506815 16.477007014809  C 1.63238331268071 16.4479085476747  1.49359768690624 16.3678877630553  1.38785625774473 16.2369446609509  L 0.158612143742255 14.6219797349961  C 0.0528707145807518 14.4764873993245  0.00660883932259402 14.3055339049104  0.0198265179677819 14.1091192517537  C 0.0330441966129699 13.912704598597  0.105741429161504 13.7563003377501  0.237918215613383 13.6399064692128  L 14.4931846344486 0.567420109119253  C 14.9161503510946 0.189140036373081  15.4184221396117 0  16 0  C 16.5815778603883 0  17.0838496489054 0.189140036373081  17.5068153655514 0.567420109119253  L 22.3444857496902 5.0194855806703  L 22.3444857496902 0.763834762275915  C 22.3444857496902 0.560145492335669  22.4039653035936 0.392829306313327  22.5229244114002 0.261886204208887  C 22.6418835192069 0.130943102104443  22.7938868236266 0.0654715510522217  22.9789343246592 0.0654715510522217  L 26.7856257744734 0.0654715510522217  C 26.970673275506 0.0654715510522217  27.1226765799256 0.130943102104443  27.2416356877323 0.261886204208887  C 27.360594795539 0.392829306313327  27.4200743494424 0.560145492335669  27.4200743494424 0.763834762275915  L 27.4200743494424 9.66796570537802  L 31.7620817843866 13.6399064692128  C 31.8942585708385 13.7563003377501  31.966955803387 13.912704598597  31.9801734820322 14.1091192517537  Z " fill-rule="nonzero" fill="#1890ff" stroke="none" transform="matrix(1 0 0 1 339 21 )" />
  </g>
</svg>