<?xml version="1.0" encoding="utf-8"?>
<svg version="1.1" xmlns:xlink="http://www.w3.org/1999/xlink" width="193px" height="32px" xmlns="http://www.w3.org/2000/svg">
  <defs>
    <mask fill="white" id="clip65">
      <path d="M 0 28  L 0 4  C 0 1.75999999999999  1.75999999999999 0  4 0  L 120.500000000001 0  L 189 0  C 191.24 0  193 1.75999999999999  193 4  L 193 28  C 193 30.24  191.24 32  189 32  L 4 32  C 1.75999999999999 32  0 30.24  0 28  Z " fill-rule="evenodd" />
    </mask>
  </defs>
  <g transform="matrix(1 0 0 1 -796 -707 )">
    <path d="M 0 28  L 0 4  C 0 1.75999999999999  1.75999999999999 0  4 0  L 120.500000000001 0  L 189 0  C 191.24 0  193 1.75999999999999  193 4  L 193 28  C 193 30.24  191.24 32  189 32  L 4 32  C 1.75999999999999 32  0 30.24  0 28  Z " fill-rule="nonzero" fill="#ffffff" stroke="none" transform="matrix(1 0 0 1 796 707 )" />
    <path d="M 0 28  L 0 4  C 0 1.75999999999999  1.75999999999999 0  4 0  L 120.500000000001 0  L 189 0  C 191.24 0  193 1.75999999999999  193 4  L 193 28  C 193 30.24  191.24 32  189 32  L 4 32  C 1.75999999999999 32  0 30.24  0 28  Z " stroke-width="2" stroke="#d9d9d9" fill="none" transform="matrix(1 0 0 1 796 707 )" mask="url(#clip65)" />
  </g>
</svg>