<?xml version="1.0" encoding="utf-8"?>
<svg version="1.1" xmlns:xlink="http://www.w3.org/1999/xlink" width="150px" height="32px" xmlns="http://www.w3.org/2000/svg">
  <defs>
    <mask fill="white" id="clip791">
      <path d="M 0 28  L 0 4  C 0 1.75999999999999  1.36787564766839 0  3.10880829015544 0  L 45.0345423143367 0  L 146.891191709845 0  C 148.632124352332 0  150 1.75999999999999  150 4  L 150 28  C 150 30.24  148.632124352332 32  146.891191709845 32  L 3.10880829015544 32  C 1.36787564766839 32  0 30.24  0 28  Z " fill-rule="evenodd" />
    </mask>
  </defs>
  <g transform="matrix(1 0 0 1 -489 -766 )">
    <path d="M 0 28  L 0 4  C 0 1.75999999999999  1.36787564766839 0  3.10880829015544 0  L 45.0345423143367 0  L 146.891191709845 0  C 148.632124352332 0  150 1.75999999999999  150 4  L 150 28  C 150 30.24  148.632124352332 32  146.891191709845 32  L 3.10880829015544 32  C 1.36787564766839 32  0 30.24  0 28  Z " fill-rule="nonzero" fill="#ffffff" stroke="none" transform="matrix(1 0 0 1 489 766 )" />
    <path d="M 0 28  L 0 4  C 0 1.75999999999999  1.36787564766839 0  3.10880829015544 0  L 45.0345423143367 0  L 146.891191709845 0  C 148.632124352332 0  150 1.75999999999999  150 4  L 150 28  C 150 30.24  148.632124352332 32  146.891191709845 32  L 3.10880829015544 32  C 1.36787564766839 32  0 30.24  0 28  Z " stroke-width="2" stroke="#d9d9d9" fill="none" transform="matrix(1 0 0 1 489 766 )" mask="url(#clip791)" />
  </g>
</svg>