<?xml version="1.0" encoding="utf-8"?>
<svg version="1.1" xmlns:xlink="http://www.w3.org/1999/xlink" width="417px" height="32px" xmlns="http://www.w3.org/2000/svg">
  <defs>
    <mask fill="white" id="clip738">
      <path d="M 0 28  L 0 4  C 0 1.75999999999999  3.80269430051812 0  8.64248704663212 0  L 125.196027633856 0  L 408.357512953368 0  C 413.197305699482 0  417 1.75999999999999  417 4  L 417 28  C 417 30.24  413.197305699482 32  408.357512953368 32  L 8.64248704663212 32  C 3.80269430051812 32  0 30.24  0 28  Z " fill-rule="evenodd" />
    </mask>
  </defs>
  <g transform="matrix(1 0 0 1 -461 -1320 )">
    <path d="M 0 28  L 0 4  C 0 1.75999999999999  3.80269430051812 0  8.64248704663212 0  L 125.196027633856 0  L 408.357512953368 0  C 413.197305699482 0  417 1.75999999999999  417 4  L 417 28  C 417 30.24  413.197305699482 32  408.357512953368 32  L 8.64248704663212 32  C 3.80269430051812 32  0 30.24  0 28  Z " fill-rule="nonzero" fill="#ffffff" stroke="none" transform="matrix(1 0 0 1 461 1320 )" />
    <path d="M 0 28  L 0 4  C 0 1.75999999999999  3.80269430051812 0  8.64248704663212 0  L 125.196027633856 0  L 408.357512953368 0  C 413.197305699482 0  417 1.75999999999999  417 4  L 417 28  C 417 30.24  413.197305699482 32  408.357512953368 32  L 8.64248704663212 32  C 3.80269430051812 32  0 30.24  0 28  Z " stroke-width="2" stroke="#d9d9d9" fill="none" transform="matrix(1 0 0 1 461 1320 )" mask="url(#clip738)" />
  </g>
</svg>