<?xml version="1.0" encoding="utf-8"?>
<svg version="1.1" xmlns:xlink="http://www.w3.org/1999/xlink" width="27px" height="18px" xmlns="http://www.w3.org/2000/svg">
  <g transform="matrix(1 0 0 1 -908 -1157 )">
    <path d="M 26.7294589178357 1.85567010309278  C 26.9098196392786 2.06185567010309  27 2.29896907216495  27 2.56701030927835  C 27 2.83505154639175  26.9098196392786 3.07216494845361  26.7294589178357 3.27835051546392  L 14.122244488978 17.6907216494845  C 13.9418837675351 17.8969072164948  13.7344689378758 18  13.5 18  C 13.2655310621242 18  13.0581162324649 17.8969072164948  12.877755511022 17.6907216494845  L 0.270541082164329 3.27835051546392  C 0.0901803607214431 3.07216494845361  0 2.83505154639175  0 2.56701030927835  C 0 2.29896907216495  0.0901803607214431 2.06185567010309  0.270541082164329 1.85567010309278  L 1.62324649298597 0.309278350515465  C 1.80360721442886 0.103092783505152  2.01102204408818 0  2.24549098196393 0  C 2.47995991983968 0  2.687374749499 0.103092783505152  2.86773547094188 0.309278350515465  L 13.5 12.4639175257732  L 24.1322645290581 0.309278350515465  C 24.312625250501 0.103092783505152  24.5200400801603 0  24.7545090180361 0  C 24.9889779559118 0  25.1963927855711 0.103092783505152  25.376753507014 0.309278350515465  L 26.7294589178357 1.85567010309278  Z " fill-rule="nonzero" fill="#000000" stroke="none" transform="matrix(1 0 0 1 908 1157 )" />
  </g>
</svg>