<?xml version="1.0" encoding="utf-8"?>
<svg version="1.1" xmlns:xlink="http://www.w3.org/1999/xlink" width="197px" height="32px" xmlns="http://www.w3.org/2000/svg">
  <defs>
    <mask fill="white" id="clip30">
      <path d="M 0 28  L 0 4  C 0 1.75999999999999  2.31146666666665 0  5.25333333333333 0  L 191.746666666667 0  C 194.688533333333 0  197 1.75999999999999  197 4  L 197 28  C 197 30.24  194.688533333333 32  191.746666666667 32  L 103.088559670785 32  L 5.25333333333333 32  C 2.31146666666665 32  0 30.24  0 28  Z " fill-rule="evenodd" />
    </mask>
  </defs>
  <g transform="matrix(1 0 0 1 -447 -899 )">
    <path d="M 0 28  L 0 4  C 0 1.75999999999999  2.31146666666665 0  5.25333333333333 0  L 191.746666666667 0  C 194.688533333333 0  197 1.75999999999999  197 4  L 197 28  C 197 30.24  194.688533333333 32  191.746666666667 32  L 103.088559670785 32  L 5.25333333333333 32  C 2.31146666666665 32  0 30.24  0 28  Z " fill-rule="nonzero" fill="#ffffff" stroke="none" transform="matrix(1 0 0 1 447 899 )" />
    <path d="M 0 28  L 0 4  C 0 1.75999999999999  2.31146666666665 0  5.25333333333333 0  L 191.746666666667 0  C 194.688533333333 0  197 1.75999999999999  197 4  L 197 28  C 197 30.24  194.688533333333 32  191.746666666667 32  L 103.088559670785 32  L 5.25333333333333 32  C 2.31146666666665 32  0 30.24  0 28  Z " stroke-width="2" stroke="#d9d9d9" fill="none" transform="matrix(1 0 0 1 447 899 )" mask="url(#clip30)" />
  </g>
</svg>