<?xml version="1.0" encoding="utf-8"?>
<svg version="1.1" xmlns:xlink="http://www.w3.org/1999/xlink" width="188px" height="32px" xmlns="http://www.w3.org/2000/svg">
  <defs>
    <mask fill="white" id="clip41">
      <path d="M 0 28  L 0 4  C 0 1.75999999999999  2.31384615384614 0  5.25874125874126 0  L 83.0442890442897 0  L 182.741258741259 0  C 185.686153846154 0  188 1.75999999999999  188 4  L 188 28  C 188 30.24  185.686153846154 32  182.741258741259 32  L 5.25874125874126 32  C 2.31384615384614 32  0 30.24  0 28  Z " fill-rule="evenodd" />
    </mask>
  </defs>
  <g transform="matrix(1 0 0 1 -761 -1092 )">
    <path d="M 0 28  L 0 4  C 0 1.75999999999999  2.31384615384614 0  5.25874125874126 0  L 83.0442890442897 0  L 182.741258741259 0  C 185.686153846154 0  188 1.75999999999999  188 4  L 188 28  C 188 30.24  185.686153846154 32  182.741258741259 32  L 5.25874125874126 32  C 2.31384615384614 32  0 30.24  0 28  Z " fill-rule="nonzero" fill="#ffffff" stroke="none" transform="matrix(1 0 0 1 761 1092 )" />
    <path d="M 0 28  L 0 4  C 0 1.75999999999999  2.31384615384614 0  5.25874125874126 0  L 83.0442890442897 0  L 182.741258741259 0  C 185.686153846154 0  188 1.75999999999999  188 4  L 188 28  C 188 30.24  185.686153846154 32  182.741258741259 32  L 5.25874125874126 32  C 2.31384615384614 32  0 30.24  0 28  Z " stroke-width="2" stroke="#d9d9d9" fill="none" transform="matrix(1 0 0 1 761 1092 )" mask="url(#clip41)" />
  </g>
</svg>