<?xml version="1.0" encoding="utf-8"?>
<svg version="1.1" xmlns:xlink="http://www.w3.org/1999/xlink" width="435px" height="32px" xmlns="http://www.w3.org/2000/svg">
  <defs>
    <mask fill="white" id="clip28">
      <path d="M 0 28  L 0 4  C 0 1.75999999999999  3.96683937823832 0  9.01554404145078 0  L 130.600172711576 0  L 425.984455958549 0  C 431.033160621762 0  435 1.75999999999999  435 4  L 435 28  C 435 30.24  431.033160621762 32  425.984455958549 32  L 9.01554404145078 32  C 3.96683937823832 32  0 30.24  0 28  Z " fill-rule="evenodd" />
    </mask>
  </defs>
  <g transform="matrix(1 0 0 1 -472 -1416 )">
    <path d="M 0 28  L 0 4  C 0 1.75999999999999  3.96683937823832 0  9.01554404145078 0  L 130.600172711576 0  L 425.984455958549 0  C 431.033160621762 0  435 1.75999999999999  435 4  L 435 28  C 435 30.24  431.033160621762 32  425.984455958549 32  L 9.01554404145078 32  C 3.96683937823832 32  0 30.24  0 28  Z " fill-rule="nonzero" fill="#ffffff" stroke="none" transform="matrix(1 0 0 1 472 1416 )" />
    <path d="M 0 28  L 0 4  C 0 1.75999999999999  3.96683937823832 0  9.01554404145078 0  L 130.600172711576 0  L 425.984455958549 0  C 431.033160621762 0  435 1.75999999999999  435 4  L 435 28  C 435 30.24  431.033160621762 32  425.984455958549 32  L 9.01554404145078 32  C 3.96683937823832 32  0 30.24  0 28  Z " stroke-width="2" stroke="#d9d9d9" fill="none" transform="matrix(1 0 0 1 472 1416 )" mask="url(#clip28)" />
  </g>
</svg>