<?xml version="1.0" encoding="utf-8"?>
<svg version="1.1" xmlns:xlink="http://www.w3.org/1999/xlink" width="187px" height="32px" xmlns="http://www.w3.org/2000/svg">
  <defs>
    <mask fill="white" id="clip341">
      <path d="M 0 28  L 0 4  C 0 1.75999999999999  2.30153846153845 0  5.23076923076923 0  L 82.6025641025648 0  L 181.769230769231 0  C 184.698461538462 0  187 1.75999999999999  187 4  L 187 28  C 187 30.24  184.698461538462 32  181.769230769231 32  L 5.23076923076923 32  C 2.30153846153845 32  0 30.24  0 28  Z " fill-rule="evenodd" />
    </mask>
  </defs>
  <g transform="matrix(1 0 0 1 -762 -899 )">
    <path d="M 0 28  L 0 4  C 0 1.75999999999999  2.30153846153845 0  5.23076923076923 0  L 82.6025641025648 0  L 181.769230769231 0  C 184.698461538462 0  187 1.75999999999999  187 4  L 187 28  C 187 30.24  184.698461538462 32  181.769230769231 32  L 5.23076923076923 32  C 2.30153846153845 32  0 30.24  0 28  Z " fill-rule="nonzero" fill="#ffffff" stroke="none" transform="matrix(1 0 0 1 762 899 )" />
    <path d="M 0 28  L 0 4  C 0 1.75999999999999  2.30153846153845 0  5.23076923076923 0  L 82.6025641025648 0  L 181.769230769231 0  C 184.698461538462 0  187 1.75999999999999  187 4  L 187 28  C 187 30.24  184.698461538462 32  181.769230769231 32  L 5.23076923076923 32  C 2.30153846153845 32  0 30.24  0 28  Z " stroke-width="2" stroke="#d9d9d9" fill="none" transform="matrix(1 0 0 1 762 899 )" mask="url(#clip341)" />
  </g>
</svg>