<?xml version="1.0" encoding="utf-8"?>
<svg version="1.1" xmlns:xlink="http://www.w3.org/1999/xlink" width="194px" height="32px" xmlns="http://www.w3.org/2000/svg">
  <defs>
    <mask fill="white" id="clip342">
      <path d="M 0 28  L 0 4  C 0 1.75999999999999  1.76911917098445 0  4.02072538860104 0  L 58.2446747265421 0  L 189.979274611399 0  C 192.230880829016 0  194 1.75999999999999  194 4  L 194 28  C 194 30.24  192.230880829016 32  189.979274611399 32  L 4.02072538860104 32  C 1.76911917098445 32  0 30.24  0 28  Z " fill-rule="evenodd" />
    </mask>
  </defs>
  <g transform="matrix(1 0 0 1 -450 -991 )">
    <path d="M 0 28  L 0 4  C 0 1.75999999999999  1.76911917098445 0  4.02072538860104 0  L 58.2446747265421 0  L 189.979274611399 0  C 192.230880829016 0  194 1.75999999999999  194 4  L 194 28  C 194 30.24  192.230880829016 32  189.979274611399 32  L 4.02072538860104 32  C 1.76911917098445 32  0 30.24  0 28  Z " fill-rule="nonzero" fill="#ffffff" stroke="none" transform="matrix(1 0 0 1 450 991 )" />
    <path d="M 0 28  L 0 4  C 0 1.75999999999999  1.76911917098445 0  4.02072538860104 0  L 58.2446747265421 0  L 189.979274611399 0  C 192.230880829016 0  194 1.75999999999999  194 4  L 194 28  C 194 30.24  192.230880829016 32  189.979274611399 32  L 4.02072538860104 32  C 1.76911917098445 32  0 30.24  0 28  Z " stroke-width="2" stroke="#d9d9d9" fill="none" transform="matrix(1 0 0 1 450 991 )" mask="url(#clip342)" />
  </g>
</svg>