<?xml version="1.0" encoding="utf-8"?>
<svg version="1.1" xmlns:xlink="http://www.w3.org/1999/xlink" width="143px" height="32px" xmlns="http://www.w3.org/2000/svg">
  <defs>
    <mask fill="white" id="clip27">
      <path d="M 0 28  L 0 4  C 0 1.75999999999999  1.75999999999999 0  4 0  L 39.6111111111127 0  L 63.1666666666672 0  L 139 0  C 141.24 0  143 1.75999999999999  143 4  L 143 28  C 143 30.24  141.24 32  139 32  L 4 32  C 1.75999999999999 32  0 30.24  0 28  Z " fill-rule="evenodd" />
    </mask>
  </defs>
  <g transform="matrix(1 0 0 1 -751 -251 )">
    <path d="M 0 28  L 0 4  C 0 1.75999999999999  1.75999999999999 0  4 0  L 39.6111111111127 0  L 63.1666666666672 0  L 139 0  C 141.24 0  143 1.75999999999999  143 4  L 143 28  C 143 30.24  141.24 32  139 32  L 4 32  C 1.75999999999999 32  0 30.24  0 28  Z " fill-rule="nonzero" fill="#ffffff" stroke="none" transform="matrix(1 0 0 1 751 251 )" />
    <path d="M 0 28  L 0 4  C 0 1.75999999999999  1.75999999999999 0  4 0  L 39.6111111111127 0  L 63.1666666666672 0  L 139 0  C 141.24 0  143 1.75999999999999  143 4  L 143 28  C 143 30.24  141.24 32  139 32  L 4 32  C 1.75999999999999 32  0 30.24  0 28  Z " stroke-width="2" stroke="#d9d9d9" fill="none" transform="matrix(1 0 0 1 751 251 )" mask="url(#clip27)" />
  </g>
</svg>