<?xml version="1.0" encoding="utf-8"?>
<svg version="1.1" xmlns:xlink="http://www.w3.org/1999/xlink" width="187px" height="32px" xmlns="http://www.w3.org/2000/svg">
  <defs>
    <mask fill="white" id="clip33">
      <path d="M 0 28  L 0 4  C 0 1.75999999999999  1.70528497409326 0  3.87564766839378 0  L 56.143062751873 0  L 183.124352331606 0  C 185.294715025907 0  187 1.75999999999999  187 4  L 187 28  C 187 30.24  185.294715025907 32  183.124352331606 32  L 3.87564766839378 32  C 1.70528497409326 32  0 30.24  0 28  Z " fill-rule="evenodd" />
    </mask>
  </defs>
  <g transform="matrix(1 0 0 1 -762 -991 )">
    <path d="M 0 28  L 0 4  C 0 1.75999999999999  1.70528497409326 0  3.87564766839378 0  L 56.143062751873 0  L 183.124352331606 0  C 185.294715025907 0  187 1.75999999999999  187 4  L 187 28  C 187 30.24  185.294715025907 32  183.124352331606 32  L 3.87564766839378 32  C 1.70528497409326 32  0 30.24  0 28  Z " fill-rule="nonzero" fill="#ffffff" stroke="none" transform="matrix(1 0 0 1 762 991 )" />
    <path d="M 0 28  L 0 4  C 0 1.75999999999999  1.70528497409326 0  3.87564766839378 0  L 56.143062751873 0  L 183.124352331606 0  C 185.294715025907 0  187 1.75999999999999  187 4  L 187 28  C 187 30.24  185.294715025907 32  183.124352331606 32  L 3.87564766839378 32  C 1.70528497409326 32  0 30.24  0 28  Z " stroke-width="2" stroke="#d9d9d9" fill="none" transform="matrix(1 0 0 1 762 991 )" mask="url(#clip33)" />
  </g>
</svg>