<?xml version="1.0" encoding="utf-8"?>
<svg version="1.1" xmlns:xlink="http://www.w3.org/1999/xlink" width="197px" height="32px" xmlns="http://www.w3.org/2000/svg">
  <defs>
    <mask fill="white" id="clip104">
      <path d="M 0 28  L 0 4  C 0 1.75999999999999  2.42461538461537 0  5.51048951048951 0  L 87.0198135198143 0  L 191.48951048951 0  C 194.575384615385 0  197 1.75999999999999  197 4  L 197 28  C 197 30.24  194.575384615385 32  191.48951048951 32  L 5.51048951048951 32  C 2.42461538461537 32  0 30.24  0 28  Z " fill-rule="evenodd" />
    </mask>
  </defs>
  <g transform="matrix(1 0 0 1 -761 -1039 )">
    <path d="M 0 28  L 0 4  C 0 1.75999999999999  2.42461538461537 0  5.51048951048951 0  L 87.0198135198143 0  L 191.48951048951 0  C 194.575384615385 0  197 1.75999999999999  197 4  L 197 28  C 197 30.24  194.575384615385 32  191.48951048951 32  L 5.51048951048951 32  C 2.42461538461537 32  0 30.24  0 28  Z " fill-rule="nonzero" fill="#ffffff" stroke="none" transform="matrix(1 0 0 1 761 1039 )" />
    <path d="M 0 28  L 0 4  C 0 1.75999999999999  2.42461538461537 0  5.51048951048951 0  L 87.0198135198143 0  L 191.48951048951 0  C 194.575384615385 0  197 1.75999999999999  197 4  L 197 28  C 197 30.24  194.575384615385 32  191.48951048951 32  L 5.51048951048951 32  C 2.42461538461537 32  0 30.24  0 28  Z " stroke-width="2" stroke="#d9d9d9" fill="none" transform="matrix(1 0 0 1 761 1039 )" mask="url(#clip104)" />
  </g>
</svg>