<?xml version="1.0" encoding="utf-8"?>
<svg version="1.1" xmlns:xlink="http://www.w3.org/1999/xlink" width="417px" height="83px" xmlns="http://www.w3.org/2000/svg">
  <defs>
    <mask fill="white" id="clip83">
      <path d="M 0 72.625  L 0 10.375  C 0 4.56499999999998  3.80269430051812 0  8.64248704663212 0  L 125.196027633856 0  L 408.357512953368 0  C 413.197305699482 0  417 4.56499999999998  417 10.375  L 417 72.625  C 417 78.435  413.197305699482 83  408.357512953368 83  L 8.64248704663212 83  C 3.80269430051812 83  0 78.435  0 72.625  Z " fill-rule="evenodd" />
    </mask>
  </defs>
  <g transform="matrix(1 0 0 1 -517 -360 )">
    <path d="M 0 72.625  L 0 10.375  C 0 4.56499999999998  3.80269430051812 0  8.64248704663212 0  L 125.196027633856 0  L 408.357512953368 0  C 413.197305699482 0  417 4.56499999999998  417 10.375  L 417 72.625  C 417 78.435  413.197305699482 83  408.357512953368 83  L 8.64248704663212 83  C 3.80269430051812 83  0 78.435  0 72.625  Z " fill-rule="nonzero" fill="#ffffff" stroke="none" transform="matrix(1 0 0 1 517 360 )" />
    <path d="M 0 72.625  L 0 10.375  C 0 4.56499999999998  3.80269430051812 0  8.64248704663212 0  L 125.196027633856 0  L 408.357512953368 0  C 413.197305699482 0  417 4.56499999999998  417 10.375  L 417 72.625  C 417 78.435  413.197305699482 83  408.357512953368 83  L 8.64248704663212 83  C 3.80269430051812 83  0 78.435  0 72.625  Z " stroke-width="2" stroke="#d9d9d9" fill="none" transform="matrix(1 0 0 1 517 360 )" mask="url(#clip83)" />
  </g>
</svg>