<?xml version="1.0" encoding="utf-8"?>
<svg version="1.1" xmlns:xlink="http://www.w3.org/1999/xlink" width="188px" height="32px" xmlns="http://www.w3.org/2000/svg">
  <defs>
    <mask fill="white" id="clip43">
      <path d="M 0 28  L 0 4  C 0 1.75999999999999  1.71440414507771 0  3.89637305699482 0  L 56.4432930339686 0  L 184.103626943005 0  C 186.285595854922 0  188 1.75999999999999  188 4  L 188 28  C 188 30.24  186.285595854922 32  184.103626943005 32  L 3.89637305699482 32  C 1.71440414507771 32  0 30.24  0 28  Z " fill-rule="evenodd" />
    </mask>
  </defs>
  <g transform="matrix(1 0 0 1 -761 -1188 )">
    <path d="M 0 28  L 0 4  C 0 1.75999999999999  1.71440414507771 0  3.89637305699482 0  L 56.4432930339686 0  L 184.103626943005 0  C 186.285595854922 0  188 1.75999999999999  188 4  L 188 28  C 188 30.24  186.285595854922 32  184.103626943005 32  L 3.89637305699482 32  C 1.71440414507771 32  0 30.24  0 28  Z " fill-rule="nonzero" fill="#ffffff" stroke="none" transform="matrix(1 0 0 1 761 1188 )" />
    <path d="M 0 28  L 0 4  C 0 1.75999999999999  1.71440414507771 0  3.89637305699482 0  L 56.4432930339686 0  L 184.103626943005 0  C 186.285595854922 0  188 1.75999999999999  188 4  L 188 28  C 188 30.24  186.285595854922 32  184.103626943005 32  L 3.89637305699482 32  C 1.71440414507771 32  0 30.24  0 28  Z " stroke-width="2" stroke="#d9d9d9" fill="none" transform="matrix(1 0 0 1 761 1188 )" mask="url(#clip43)" />
  </g>
</svg>