<?xml version="1.0" encoding="utf-8"?>
<svg version="1.1" xmlns:xlink="http://www.w3.org/1999/xlink" width="502px" height="97px" xmlns="http://www.w3.org/2000/svg">
  <defs>
    <mask fill="white" id="clip145">
      <path d="M 0 84.875  L 0 12.125  C 0 5.33499999999997  4.57782383419687 0  10.4041450777202 0  L 150.71560161198 0  L 491.59585492228 0  C 497.422176165803 0  502 5.33499999999997  502 12.125  L 502 84.875  C 502 91.665  497.422176165803 97  491.59585492228 97  L 10.4041450777202 97  C 4.57782383419687 97  0 91.665  0 84.875  Z " fill-rule="evenodd" />
    </mask>
  </defs>
  <g transform="matrix(1 0 0 1 -447 -1277 )">
    <path d="M 0 84.875  L 0 12.125  C 0 5.33499999999997  4.57782383419687 0  10.4041450777202 0  L 150.71560161198 0  L 491.59585492228 0  C 497.422176165803 0  502 5.33499999999997  502 12.125  L 502 84.875  C 502 91.665  497.422176165803 97  491.59585492228 97  L 10.4041450777202 97  C 4.57782383419687 97  0 91.665  0 84.875  Z " fill-rule="nonzero" fill="#ffffff" stroke="none" transform="matrix(1 0 0 1 447 1277 )" />
    <path d="M 0 84.875  L 0 12.125  C 0 5.33499999999997  4.57782383419687 0  10.4041450777202 0  L 150.71560161198 0  L 491.59585492228 0  C 497.422176165803 0  502 5.33499999999997  502 12.125  L 502 84.875  C 502 91.665  497.422176165803 97  491.59585492228 97  L 10.4041450777202 97  C 4.57782383419687 97  0 91.665  0 84.875  Z " stroke-width="2" stroke="#d9d9d9" fill="none" transform="matrix(1 0 0 1 447 1277 )" mask="url(#clip145)" />
  </g>
</svg>