<?xml version="1.0" encoding="utf-8"?>
<svg version="1.1" xmlns:xlink="http://www.w3.org/1999/xlink" width="136px" height="32px" xmlns="http://www.w3.org/2000/svg">
  <defs>
    <mask fill="white" id="clip218">
      <path d="M 0 28  L 0 4  C 0 1.75999999999999  0.543999999999997 0  1.23636363636364 0  L 134.763636363636 0  C 135.456 0  136 1.75999999999999  136 4  L 136 28  C 136 30.24  135.456 32  134.763636363636 32  L 15.5781818181811 32  L 1.23636363636364 32  C 0.543999999999997 32  0 30.24  0 28  Z " fill-rule="evenodd" />
    </mask>
  </defs>
  <g transform="matrix(1 0 0 1 -571 -249 )">
    <path d="M 0 28  L 0 4  C 0 1.75999999999999  0.543999999999997 0  1.23636363636364 0  L 134.763636363636 0  C 135.456 0  136 1.75999999999999  136 4  L 136 28  C 136 30.24  135.456 32  134.763636363636 32  L 15.5781818181811 32  L 1.23636363636364 32  C 0.543999999999997 32  0 30.24  0 28  Z " fill-rule="nonzero" fill="#ffffff" stroke="none" transform="matrix(1 0 0 1 571 249 )" />
    <path d="M 0 28  L 0 4  C 0 1.75999999999999  0.543999999999997 0  1.23636363636364 0  L 134.763636363636 0  C 135.456 0  136 1.75999999999999  136 4  L 136 28  C 136 30.24  135.456 32  134.763636363636 32  L 15.5781818181811 32  L 1.23636363636364 32  C 0.543999999999997 32  0 30.24  0 28  Z " stroke-width="2" stroke="#d9d9d9" fill="none" transform="matrix(1 0 0 1 571 249 )" mask="url(#clip218)" />
  </g>
</svg>