<?xml version="1.0" encoding="utf-8"?>
<svg version="1.1" xmlns:xlink="http://www.w3.org/1999/xlink" width="12px" height="12px" viewBox="443 165.5  12 12" xmlns="http://www.w3.org/2000/svg">
  <path d="M 449 165.5  C 452.36 165.5  455 168.14  455 171.5  C 455 174.86  452.36 177.5  449 177.5  C 445.64 177.5  443 174.86  443 171.5  C 443 168.14  445.64 165.5  449 165.5  Z " fill-rule="nonzero" fill="#f0f0f0" stroke="none" />
  <path d="M 449 166  C 452.08 166  454.5 168.42  454.5 171.5  C 454.5 174.58  452.08 177  449 177  C 445.92 177  443.5 174.58  443.5 171.5  C 443.5 168.42  445.92 166  449 166  Z " stroke-width="1" stroke="#797979" fill="none" />
  <path d="M 449 174.5  C 447.32 174.5  446 173.18  446 171.5  C 446 169.82  447.32 168.5  449 168.5  C 450.68 168.5  452 169.82  452 171.5  C 452 173.18  450.68 174.5  449 174.5  " fill-rule="nonzero" fill="#797979" stroke="none" />
</svg>