<?xml version="1.0" encoding="utf-8"?>
<svg version="1.1" xmlns:xlink="http://www.w3.org/1999/xlink" width="21px" height="23px" xmlns="http://www.w3.org/2000/svg">
  <g transform="matrix(1 0 0 1 -983 -834 )">
    <path d="M 20.860546875 16.6285807291667  C 20.953515625 17.3822699652778  21 18.1833767361111  21 19.0319010416667  C 21 20.1200086805556  20.658203125 21.0533854166667  19.974609375 21.83203125  C 19.291015625 22.6106770833333  18.46796875 23  17.50546875 23  L 3.49453125 23  C 2.53203125 23  1.708984375 22.6106770833333  1.025390625 21.83203125  C 0.341796875 21.0533854166667  0 20.1200086805556  0 19.0319010416667  C 0 18.1833767361111  0.0464843750000001 17.3822699652778  0.139453125 16.6285807291667  C 0.232421875 15.8748914930556  0.4046875 15.1162109375  0.65625 14.3525390625  C 0.9078125 13.5888671875  1.227734375 12.9350043402778  1.616015625 12.3909505208333  C 2.004296875 11.8468967013889  2.518359375 11.4026692708333  3.158203125 11.0582682291667  C 3.798046875 10.7138671875  4.53359375 10.5416666666667  5.36484375 10.5416666666667  C 6.79765625 11.8194444444444  8.509375 12.4583333333333  10.5 12.4583333333333  C 12.490625 12.4583333333333  14.20234375 11.8194444444444  15.63515625 10.5416666666667  C 16.46640625 10.5416666666667  17.201953125 10.7138671875  17.841796875 11.0582682291667  C 18.481640625 11.4026692708333  18.995703125 11.8468967013889  19.383984375 12.3909505208333  C 19.772265625 12.9350043402778  20.0921875 13.5888671875  20.34375 14.3525390625  C 20.5953125 15.1162109375  20.767578125 15.8748914930556  20.860546875 16.6285807291667  Z M 14.954296875 1.6845703125  C 16.184765625 2.8076171875  16.8 4.16276041666667  16.8 5.75  C 16.8 7.33723958333333  16.184765625 8.6923828125  14.954296875 9.8154296875  C 13.723828125 10.9384765625  12.2390625 11.5  10.5 11.5  C 8.7609375 11.5  7.276171875 10.9384765625  6.045703125 9.8154296875  C 4.815234375 8.6923828125  4.2 7.33723958333333  4.2 5.75  C 4.2 4.16276041666667  4.815234375 2.8076171875  6.045703125 1.6845703125  C 7.276171875 0.5615234375  8.7609375 0  10.5 0  C 12.2390625 0  13.723828125 0.5615234375  14.954296875 1.6845703125  Z " fill-rule="nonzero" fill="#aeaeae" stroke="none" transform="matrix(1 0 0 1 983 834 )" />
  </g>
</svg>