<?xml version="1.0" encoding="utf-8"?>
<svg version="1.1" xmlns:xlink="http://www.w3.org/1999/xlink" width="28px" height="21px" xmlns="http://www.w3.org/2000/svg">
  <g transform="matrix(1 0 0 1 -706 -837 )">
    <path d="M 5.25 10.5  L 8.75 10.5  L 8.75 17.5  L 5.25 17.5  L 5.25 10.5  Z M 11 3.5  L 14 3.5  L 14 17.5  L 11 17.5  L 11 3.5  Z M 2 19  L 28 19  L 28 21  L 0 21  L 0 0  L 2 0  L 2 19  Z M 15.75 7  L 19 7  L 19 17.5  L 15.75 17.5  L 15.75 7  Z M 21 1.75  L 24 1.75  L 24 17.5  L 21 17.5  L 21 1.75  Z " fill-rule="nonzero" fill="#aeaeae" stroke="none" transform="matrix(1 0 0 1 706 837 )" />
  </g>
</svg>