<?xml version="1.0" encoding="utf-8"?>
<svg version="1.1" xmlns:xlink="http://www.w3.org/1999/xlink" width="27px" height="27px" xmlns="http://www.w3.org/2000/svg">
  <g transform="matrix(1 0 0 1 -139 -182 )">
    <path d="M 26.4630681818182 10.3551136363636  C 26.8210227272727 10.7130681818182  27 11.1477272727273  27 11.6590909090909  L 27 15.3409090909091  C 27 15.8522727272727  26.8210227272727 16.2869318181818  26.4630681818182 16.6448863636364  C 26.1051136363636 17.0028409090909  25.6704545454545 17.1818181818182  25.1590909090909 17.1818181818182  L 17.1818181818182 17.1818181818182  L 17.1818181818182 25.1590909090909  C 17.1818181818182 25.6704545454545  17.0028409090909 26.1051136363636  16.6448863636364 26.4630681818182  C 16.2869318181818 26.8210227272727  15.8522727272727 27  15.3409090909091 27  L 11.6590909090909 27  C 11.1477272727273 27  10.7130681818182 26.8210227272727  10.3551136363636 26.4630681818182  C 9.99715909090909 26.1051136363636  9.81818181818182 25.6704545454545  9.81818181818182 25.1590909090909  L 9.81818181818182 17.1818181818182  L 1.84090909090909 17.1818181818182  C 1.32954545454545 17.1818181818182  0.894886363636364 17.0028409090909  0.536931818181818 16.6448863636364  C 0.178977272727273 16.2869318181818  0 15.8522727272727  0 15.3409090909091  L 0 11.6590909090909  C 0 11.1477272727273  0.178977272727273 10.7130681818182  0.536931818181818 10.3551136363636  C 0.894886363636364 9.99715909090909  1.32954545454545 9.81818181818182  1.84090909090909 9.81818181818182  L 9.81818181818182 9.81818181818182  L 9.81818181818182 1.84090909090909  C 9.81818181818182 1.32954545454545  9.99715909090909 0.894886363636362  10.3551136363636 0.536931818181818  C 10.7130681818182 0.178977272727272  11.1477272727273 0  11.6590909090909 0  L 15.3409090909091 0  C 15.8522727272727 0  16.2869318181818 0.178977272727272  16.6448863636364 0.536931818181818  C 17.0028409090909 0.894886363636362  17.1818181818182 1.32954545454545  17.1818181818182 1.84090909090909  L 17.1818181818182 9.81818181818182  L 25.1590909090909 9.81818181818182  C 25.6704545454545 9.81818181818182  26.1051136363636 9.99715909090909  26.4630681818182 10.3551136363636  Z " fill-rule="nonzero" fill="#9c9c9c" stroke="none" transform="matrix(1 0 0 1 139 182 )" />
  </g>
</svg>