<?xml version="1.0" encoding="utf-8"?>
<svg version="1.1" xmlns:xlink="http://www.w3.org/1999/xlink" width="25px" height="25px" xmlns="http://www.w3.org/2000/svg">
  <g transform="matrix(1 0 0 1 -498 -55 )">
    <path d="M 6.37770432692308 18.8585069444444  C 6.75330528846154 19.2201967592593  6.94110576923077 19.6566358024691  6.94110576923077 20.1678240740741  C 6.94110576923077 20.679012345679  6.75330528846154 21.1154513888889  6.37770432692308 21.4771412037037  C 6.00210336538462 21.8388310185185  5.54887820512821 22.0196759259259  5.01802884615385 22.0196759259259  C 4.49719551282051 22.0196759259259  4.04647435897436 21.8364197530864  3.66586538461538 21.4699074074074  C 3.28525641025641 21.1033950617284  3.09495192307692 20.6693672839506  3.09495192307692 20.1678240740741  C 3.09495192307692 19.6566358024691  3.28275240384615 19.2201967592593  3.65835336538462 18.8585069444444  C 4.03395432692308 18.4968171296296  4.48717948717949 18.3159722222222  5.01802884615385 18.3159722222222  C 5.54887820512821 18.3159722222222  6.00210336538462 18.4968171296296  6.37770432692308 18.8585069444444  Z M 13.8596754807692 21.8388310185185  C 14.2352764423077 22.2005208333333  14.4230769230769 22.6369598765432  14.4230769230769 23.1481481481481  C 14.4230769230769 23.6593364197531  14.2352764423077 24.095775462963  13.8596754807692 24.4574652777778  C 13.4840745192308 24.8191550925926  13.0308493589744 25  12.5 25  C 11.9691506410256 25  11.5159254807692 24.8191550925926  11.1403245192308 24.4574652777778  C 10.7647235576923 24.095775462963  10.5769230769231 23.6593364197531  10.5769230769231 23.1481481481481  C 10.5769230769231 22.6369598765432  10.7647235576923 22.2005208333333  11.1403245192308 21.8388310185185  C 11.5159254807692 21.4771412037037  11.9691506410256 21.2962962962963  12.5 21.2962962962963  C 13.0308493589744 21.2962962962963  13.4840745192308 21.4771412037037  13.8596754807692 21.8388310185185  Z M 3.28275240384615 11.6536458333333  C 3.65835336538462 12.0153356481481  3.84615384615385 12.451774691358  3.84615384615385 12.962962962963  C 3.84615384615385 13.4741512345679  3.65835336538462 13.9105902777778  3.28275240384615 14.2722800925926  C 2.90715144230769 14.6339699074074  2.45392628205128 14.8148148148148  1.92307692307692 14.8148148148148  C 1.39222756410256 14.8148148148148  0.939002403846154 14.6339699074074  0.563401442307692 14.2722800925926  C 0.187800480769231 13.9105902777778  0 13.4741512345679  0 12.962962962963  C 0 12.451774691358  0.187800480769231 12.0153356481481  0.563401442307692 11.6536458333333  C 0.939002403846154 11.2919560185185  1.39222756410256 11.1111111111111  1.92307692307692 11.1111111111111  C 2.45392628205128 11.1111111111111  2.90715144230769 11.2919560185185  3.28275240384615 11.6536458333333  Z M 21.3416466346154 18.8585069444444  C 21.7172475961538 19.2201967592593  21.9050480769231 19.6566358024691  21.9050480769231 20.1678240740741  C 21.9050480769231 20.6693672839506  21.7147435897436 21.1033950617284  21.3341346153846 21.4699074074074  C 20.9535256410256 21.8364197530864  20.5028044871795 22.0196759259259  19.9819711538462 22.0196759259259  C 19.4511217948718 22.0196759259259  18.9978966346154 21.8388310185185  18.6222956730769 21.4771412037037  C 18.2466947115385 21.1154513888889  18.0588942307692 20.679012345679  18.0588942307692 20.1678240740741  C 18.0588942307692 19.6566358024691  18.2466947115385 19.2201967592593  18.6222956730769 18.8585069444444  C 18.9978966346154 18.4968171296296  19.4511217948718 18.3159722222222  19.9819711538462 18.3159722222222  C 20.5128205128205 18.3159722222222  20.9660456730769 18.4968171296296  21.3416466346154 18.8585069444444  Z M 6.71574519230769 4.12326388888889  C 7.1864983974359 4.57658179012345  7.421875 5.12152777777778  7.421875 5.75810185185185  C 7.421875 6.39467592592593  7.1864983974359 6.93962191358024  6.71574519230769 7.39293981481481  C 6.24499198717949 7.84625771604938  5.67908653846154 8.07291666666667  5.01802884615385 8.07291666666667  C 4.35697115384615 8.07291666666667  3.79106570512821 7.84625771604938  3.3203125 7.39293981481481  C 2.8495592948718 6.93962191358024  2.61418269230769 6.39467592592593  2.61418269230769 5.75810185185185  C 2.61418269230769 5.12152777777778  2.8495592948718 4.57658179012345  3.3203125 4.12326388888889  C 3.79106570512821 3.66994598765432  4.35697115384615 3.44328703703704  5.01802884615385 3.44328703703704  C 5.67908653846154 3.44328703703704  6.24499198717949 3.66994598765432  6.71574519230769 4.12326388888889  Z M 24.4365985576923 11.6536458333333  C 24.8121995192308 12.0153356481481  25 12.451774691358  25 12.962962962963  C 25 13.4741512345679  24.8121995192308 13.9105902777778  24.4365985576923 14.2722800925926  C 24.0609975961539 14.6339699074074  23.6077724358974 14.8148148148148  23.0769230769231 14.8148148148148  C 22.5460737179487 14.8148148148148  22.0928485576923 14.6339699074074  21.7172475961538 14.2722800925926  C 21.3416466346154 13.9105902777778  21.1538461538462 13.4741512345679  21.1538461538462 12.962962962963  C 21.1538461538462 12.451774691358  21.3416466346154 12.0153356481481  21.7172475961538 11.6536458333333  C 22.0928485576923 11.2919560185185  22.5460737179487 11.1111111111111  23.0769230769231 11.1111111111111  C 23.6077724358974 11.1111111111111  24.0609975961539 11.2919560185185  24.4365985576923 11.6536458333333  Z M 14.5432692307692 0.810185185185186  C 15.1041666666667 1.35030864197531  15.3846153846154 2.00617283950617  15.3846153846154 2.77777777777778  C 15.3846153846154 3.54938271604938  15.1041666666667 4.20524691358024  14.5432692307692 4.74537037037037  C 13.9823717948718 5.28549382716049  13.3012820512821 5.55555555555556  12.5 5.55555555555556  C 11.698717948718 5.55555555555556  11.0176282051282 5.28549382716049  10.4567307692308 4.74537037037037  C 9.89583333333333 4.20524691358024  9.61538461538462 3.54938271604938  9.61538461538462 2.77777777777778  C 9.61538461538462 2.00617283950617  9.89583333333333 1.35030864197531  10.4567307692308 0.810185185185186  C 11.0176282051282 0.270061728395063  11.698717948718 0  12.5 0  C 13.3012820512821 0  13.9823717948718 0.270061728395063  14.5432692307692 0.810185185185186  Z M 22.3557692307692 3.47222222222222  C 23.0168269230769 4.1087962962963  23.3473557692308 4.8707561728395  23.3473557692308 5.75810185185185  C 23.3473557692308 6.65509259259259  23.0168269230769 7.4194637345679  22.3557692307692 8.05121527777778  C 21.6947115384615 8.68296682098765  20.9034455128205 8.99884259259259  19.9819711538462 8.99884259259259  C 19.0504807692308 8.99884259259259  18.2567107371795 8.68296682098765  17.6006610576923 8.05121527777778  C 16.9446113782051 7.4194637345679  16.6165865384615 6.65509259259259  16.6165865384615 5.75810185185185  C 16.6165865384615 4.8707561728395  16.9446113782051 4.1087962962963  17.6006610576923 3.47222222222222  C 18.2567107371795 2.83564814814815  19.0504807692308 2.51736111111111  19.9819711538462 2.51736111111111  C 20.9034455128205 2.51736111111111  21.6947115384615 2.83564814814815  22.3557692307692 3.47222222222222  Z " fill-rule="nonzero" fill="#1890ff" stroke="none" transform="matrix(1 0 0 1 498 55 )" />
  </g>
</svg>