<?xml version="1.0" encoding="utf-8"?>
<svg version="1.1" xmlns:xlink="http://www.w3.org/1999/xlink" width="15px" height="16px" xmlns="http://www.w3.org/2000/svg">
  <g transform="matrix(1 0 0 1 -673 -504 )">
    <path d="M 14.8318804483188 0.20673076923077  C 14.9439601494396 0.29326923076923  15 0.410256410256409  15 0.557692307692308  C 15 0.782051282051281  14.8661270236613 1.03205128205128  14.5983810709838 1.30769230769231  L 8.69551681195517 7.38461538461539  L 8.69551681195517 14.7692307692308  L 11.6843088418431 14.7692307692308  C 11.846201743462 14.7692307692308  11.986301369863 14.8301282051282  12.1046077210461 14.9519230769231  C 12.2229140722291 15.0737179487179  12.2820672478207 15.2179487179487  12.2820672478207 15.3846153846154  C 12.2820672478207 15.5512820512821  12.2229140722291 15.6955128205128  12.1046077210461 15.8173076923077  C 11.986301369863 15.9391025641026  11.846201743462 16  11.6843088418431 16  L 3.31569115815691 16  C 3.15379825653798 16  3.01369863013699 15.9391025641026  2.89539227895392 15.8173076923077  C 2.77708592777086 15.6955128205128  2.71793275217933 15.5512820512821  2.71793275217933 15.3846153846154  C 2.71793275217933 15.2179487179487  2.77708592777086 15.0737179487179  2.89539227895392 14.9519230769231  C 3.01369863013699 14.8301282051282  3.15379825653798 14.7692307692308  3.31569115815691 14.7692307692308  L 6.30448318804483 14.7692307692308  L 6.30448318804483 7.38461538461539  L 0.401618929016189 1.30769230769231  C 0.13387297633873 1.03205128205128  0 0.782051282051281  0 0.557692307692308  C 0 0.410256410256409  0.0560398505603985 0.29326923076923  0.168119551681196 0.20673076923077  C 0.280199252801993 0.120192307692308  0.398505603985056 0.0641025641025621  0.523038605230386 0.0384615384615383  C 0.647571606475716 0.0128205128205128  0.781444582814446 0  0.924657534246575 0  L 14.0753424657534 0  C 14.2185554171856 0  14.3524283935243 0.0128205128205128  14.4769613947696 0.0384615384615383  C 14.6014943960149 0.0641025641025621  14.719800747198 0.120192307692308  14.8318804483188 0.20673076923077  Z " fill-rule="nonzero" fill="#a2a2a2" stroke="none" transform="matrix(1 0 0 1 673 504 )" />
  </g>
</svg>