<?xml version="1.0" encoding="utf-8"?>
<svg version="1.1" xmlns:xlink="http://www.w3.org/1999/xlink" width="122px" height="175px" xmlns="http://www.w3.org/2000/svg">
  <g transform="matrix(1 0 0 1 -15 -328 )">
    <path d="M 16 332  A 3 3 0 0 1 19 329 L 133 329  A 3 3 0 0 1 136 332 L 136 499  A 3 3 0 0 1 133 502 L 19 502  A 3 3 0 0 1 16 499 L 16 332  Z " fill-rule="nonzero" fill="#000000" stroke="none" fill-opacity="0.0196078431372549" />
    <path d="M 15.5 332  A 3.5 3.5 0 0 1 19 328.5 L 133 328.5  A 3.5 3.5 0 0 1 136.5 332 L 136.5 499  A 3.5 3.5 0 0 1 133 502.5 L 19 502.5  A 3.5 3.5 0 0 1 15.5 499 L 15.5 332  Z " stroke-width="1" stroke-dasharray="9,4" stroke="#d9d9d9" fill="none" stroke-dashoffset="0.5" />
  </g>
</svg>