<?xml version="1.0" encoding="utf-8"?>
<svg version="1.1" xmlns:xlink="http://www.w3.org/1999/xlink" width="114px" height="32px" xmlns="http://www.w3.org/2000/svg">
  <g transform="matrix(1 0 0 1 -362 -262 )">
    <path d="M 363 266  A 3 3 0 0 1 366 263 L 472 263  A 3 3 0 0 1 475 266 L 475 290  A 3 3 0 0 1 472 293 L 366 293  A 3 3 0 0 1 363 290 L 363 266  Z " fill-rule="nonzero" fill="#ffffff" stroke="none" />
    <path d="M 362.5 266  A 3.5 3.5 0 0 1 366 262.5 L 472 262.5  A 3.5 3.5 0 0 1 475.5 266 L 475.5 290  A 3.5 3.5 0 0 1 472 293.5 L 366 293.5  A 3.5 3.5 0 0 1 362.5 290 L 362.5 266  Z " stroke-width="1" stroke="#000000" fill="none" stroke-opacity="0.0196078431372549" />
  </g>
</svg>