<?xml version="1.0" encoding="utf-8"?>
<svg version="1.1" xmlns:xlink="http://www.w3.org/1999/xlink" width="193px" height="32px" xmlns="http://www.w3.org/2000/svg">
  <g transform="matrix(1 0 0 1 -363 -311 )">
    <path d="M 364 315  A 3 3 0 0 1 367 312 L 552 312  A 3 3 0 0 1 555 315 L 555 339  A 3 3 0 0 1 552 342 L 367 342  A 3 3 0 0 1 364 339 L 364 315  Z " fill-rule="nonzero" fill="#ffffff" stroke="none" />
    <path d="M 363.5 315  A 3.5 3.5 0 0 1 367 311.5 L 552 311.5  A 3.5 3.5 0 0 1 555.5 315 L 555.5 339  A 3.5 3.5 0 0 1 552 342.5 L 367 342.5  A 3.5 3.5 0 0 1 363.5 339 L 363.5 315  Z " stroke-width="1" stroke="#000000" fill="none" stroke-opacity="0.0196078431372549" />
  </g>
</svg>