<?xml version="1.0" encoding="utf-8"?>
<svg version="1.1" xmlns:xlink="http://www.w3.org/1999/xlink" width="122px" height="32px" xmlns="http://www.w3.org/2000/svg">
  <g transform="matrix(1 0 0 1 -363 -414 )">
    <path d="M 364 418  A 3 3 0 0 1 367 415 L 481 415  A 3 3 0 0 1 484 418 L 484 442  A 3 3 0 0 1 481 445 L 367 445  A 3 3 0 0 1 364 442 L 364 418  Z " fill-rule="nonzero" fill="#ffffff" stroke="none" />
    <path d="M 363.5 418  A 3.5 3.5 0 0 1 367 414.5 L 481 414.5  A 3.5 3.5 0 0 1 484.5 418 L 484.5 442  A 3.5 3.5 0 0 1 481 445.5 L 367 445.5  A 3.5 3.5 0 0 1 363.5 442 L 363.5 418  Z " stroke-width="1" stroke="#000000" fill="none" stroke-opacity="0.0196078431372549" />
  </g>
</svg>