<?xml version="1.0" encoding="utf-8"?>
<svg version="1.1" xmlns:xlink="http://www.w3.org/1999/xlink" width="8px" height="8px" xmlns="http://www.w3.org/2000/svg">
  <g transform="matrix(1 0 0 1 -584 -9716 )">
    <path d="M 588 9716  C 590.24 9716  592 9717.76  592 9720  C 592 9722.24  590.24 9724  588 9724  C 585.76 9724  584 9722.24  584 9720  C 584 9717.76  585.76 9716  588 9716  Z " fill-rule="nonzero" fill="#2fc25b" stroke="none" />
    <path d="M 588 9716.5  C 589.96 9716.5  591.5 9718.04  591.5 9720  C 591.5 9721.96  589.96 9723.5  588 9723.5  C 586.04 9723.5  584.5 9721.96  584.5 9720  C 584.5 9718.04  586.04 9716.5  588 9716.5  Z " stroke-width="1" stroke="#ffffff" fill="none" />
  </g>
</svg>