<?xml version="1.0" encoding="utf-8"?>
<svg version="1.1" xmlns:xlink="http://www.w3.org/1999/xlink" width="28px" height="28px" xmlns="http://www.w3.org/2000/svg">
  <defs>
    <filter x="680px" y="9866px" width="28px" height="28px" filterUnits="userSpaceOnUse" id="filter48">
      <feOffset dx="0" dy="1" in="SourceAlpha" result="shadowOffsetInner" />
      <feGaussianBlur stdDeviation="1" in="shadowOffsetInner" result="shadowGaussian" />
      <feComposite in2="shadowGaussian" operator="atop" in="SourceAlpha" result="shadowComposite" />
      <feColorMatrix type="matrix" values="0 0 0 0 0  0 0 0 0 0  0 0 0 0 0  0 0 0 0.349019607843137 0  " in="shadowComposite" />
    </filter>
    <g id="widget49">
      <path d="M 694 9867  C 700.72 9867  706 9872.28  706 9879  C 706 9885.72  700.72 9891  694 9891  C 687.28 9891  682 9885.72  682 9879  C 682 9872.28  687.28 9867  694 9867  Z " fill-rule="nonzero" fill="#ffffff" stroke="none" />
      <path d="M 694 9867.5  C 700.44 9867.5  705.5 9872.56  705.5 9879  C 705.5 9885.44  700.44 9890.5  694 9890.5  C 687.56 9890.5  682.5 9885.44  682.5 9879  C 682.5 9872.56  687.56 9867.5  694 9867.5  Z " stroke-width="1" stroke="#d9d9d9" fill="none" />
    </g>
  </defs>
  <g transform="matrix(1 0 0 1 -680 -9866 )">
    <use xlink:href="#widget49" filter="url(#filter48)" />
    <use xlink:href="#widget49" />
  </g>
</svg>