<?xml version="1.0" encoding="utf-8"?>
<svg version="1.1" xmlns:xlink="http://www.w3.org/1999/xlink" width="8px" height="8px" xmlns="http://www.w3.org/2000/svg">
  <g transform="matrix(1 0 0 1 -584 -9736 )">
    <path d="M 588 9736  C 590.24 9736  592 9737.76  592 9740  C 592 9742.24  590.24 9744  588 9744  C 585.76 9744  584 9742.24  584 9740  C 584 9737.76  585.76 9736  588 9736  Z " fill-rule="nonzero" fill="#1890ff" stroke="none" />
    <path d="M 588 9736.5  C 589.96 9736.5  591.5 9738.04  591.5 9740  C 591.5 9741.96  589.96 9743.5  588 9743.5  C 586.04 9743.5  584.5 9741.96  584.5 9740  C 584.5 9738.04  586.04 9736.5  588 9736.5  Z " stroke-width="1" stroke="#ffffff" fill="none" />
  </g>
</svg>