<?xml version="1.0" encoding="utf-8"?>
<svg version="1.1" xmlns:xlink="http://www.w3.org/1999/xlink" width="64px" height="64px" xmlns="http://www.w3.org/2000/svg">
  <g transform="matrix(1 0 0 1 -468 -9408 )">
    <path d="M 500 9408  C 517.92 9408  532 9422.08  532 9440  C 532 9457.92  517.92 9472  500 9472  C 482.08 9472  468 9457.92  468 9440  C 468 9422.08  482.08 9408  500 9408  Z " fill-rule="nonzero" fill="#e9e9e9" stroke="none" />
    <path d="M 500 9408.5  C 517.64 9408.5  531.5 9422.36  531.5 9440  C 531.5 9457.64  517.64 9471.5  500 9471.5  C 482.36 9471.5  468.5 9457.64  468.5 9440  C 468.5 9422.36  482.36 9408.5  500 9408.5  Z " stroke-width="1" stroke="#ffffff" fill="none" />
  </g>
</svg>