<?xml version="1.0" encoding="utf-8"?>
<svg version="1.1" xmlns:xlink="http://www.w3.org/1999/xlink" width="13px" height="13px" xmlns="http://www.w3.org/2000/svg">
  <g transform="matrix(1 0 0 1 -2967 -3422 )">
    <path d="M 5.77777777777778 0.999999999999999  L 5.77777777777778 6.953125  L 9.88541666666667 11.21875  C 9.35378086419753 11.78125  8.73312114197531 12.21875  8.0234375 12.53125  C 7.31375385802469 12.84375  6.56520061728395 13  5.77777777777778 13  C 4.7295524691358 13  3.76282793209877 12.7317708333333  2.87760416666667 12.1953125  C 1.99238040123457 11.6588541666667  1.2914737654321 10.9309895833333  0.774884259259259 10.01171875  C 0.25829475308642 9.09244791666667  0 8.08854166666667  0 7  C 0 5.91145833333333  0.25829475308642 4.90755208333333  0.774884259259259 3.98828125  C 1.2914737654321 3.06901041666667  1.99238040123457 2.34114583333333  2.87760416666667 1.8046875  C 3.76282793209877 1.26822916666667  4.7295524691358 0.999999999999999  5.77777777777778 0.999999999999999  Z M 11.2847222222222 11.265625  L 7.18460648148148 7  L 13 7  C 13 7.81770833333333  12.849537037037 8.59505208333333  12.5486111111111 9.33203125  C 12.2476851851852 10.0690104166667  11.8263888888889 10.7135416666667  11.2847222222222 11.265625  Z M 11.7436342592593 2.98828125  C 12.2602237654321 3.90755208333333  12.5185185185185 4.91145833333333  12.5185185185185 6  L 6.74074074074074 6  L 6.74074074074074 0  C 7.78896604938272 0  8.75569058641976 0.268229166666668  9.64091435185185 0.8046875  C 10.526138117284 1.34114583333333  11.2270447530864 2.06901041666667  11.7436342592593 2.98828125  Z " fill-rule="nonzero" fill="#999999" stroke="none" transform="matrix(1 0 0 1 2967 3422 )" />
  </g>
</svg>