<?xml version="1.0" encoding="utf-8"?>
<svg version="1.1" xmlns:xlink="http://www.w3.org/1999/xlink" width="39px" height="39px" xmlns="http://www.w3.org/2000/svg">
  <g transform="matrix(1 0 0 1 -480 -9420 )">
    <path d="M 499.5 9420  C 510.42 9420  519 9428.58  519 9439.5  C 519 9450.42  510.42 9459  499.5 9459  C 488.58 9459  480 9450.42  480 9439.5  C 480 9428.58  488.58 9420  499.5 9420  Z " fill-rule="nonzero" fill="#ffffff" stroke="none" />
    <path d="M 499.5 9420.5  C 510.14 9420.5  518.5 9428.86  518.5 9439.5  C 518.5 9450.14  510.14 9458.5  499.5 9458.5  C 488.86 9458.5  480.5 9450.14  480.5 9439.5  C 480.5 9428.86  488.86 9420.5  499.5 9420.5  Z " stroke-width="1" stroke="#ffffff" fill="none" />
  </g>
</svg>