<?xml version="1.0" encoding="utf-8"?>
<svg version="1.1" xmlns:xlink="http://www.w3.org/1999/xlink" width="64px" height="64px" xmlns="http://www.w3.org/2000/svg">
  <g transform="matrix(1 0 0 1 -468 -9408 )">
    <path d="M 497.333511537484 9408.61306260062  C 498.22026999089 9408.53772771924  499.109897522075 9408.5  500 9408.5  C 517.39696961967 9408.5  531.5 9422.60303038033  531.5 9440  C 531.5 9457.39696961967  517.39696961967 9471.5  500 9471.5  C 482.60303038033 9471.5  468.5 9457.39696961967  468.5 9440  C 468.5 9434.63735536427  469.869029054164 9429.36633840497  472.473635776506 9424.68499647495  L 499.75 9440.43301270189  A 0.5 0.5 0 0 0 500.497470760719 9439.9497720971 L 497.333511537502 9408.61306260062  Z " fill-rule="nonzero" fill="#99d5fd" stroke="none" />
    <path d="M 497.333511537484 9408.61306260062  C 498.22026999089 9408.53772771924  499.109897522075 9408.5  500 9408.5  C 517.39696961967 9408.5  531.5 9422.60303038033  531.5 9440  C 531.5 9457.39696961967  517.39696961967 9471.5  500 9471.5  C 482.60303038033 9471.5  468.5 9457.39696961967  468.5 9440  C 468.5 9434.63735536427  469.869029054164 9429.36633840497  472.473635776506 9424.68499647495  L 499.75 9440.43301270189  A 0.5 0.5 0 0 0 500.497470760719 9439.9497720971 L 497.333511537502 9408.61306260062  Z " stroke-width="1" stroke="#ffffff" fill="none" />
  </g>
</svg>