<?xml version="1.0" encoding="utf-8"?>
<svg version="1.1" xmlns:xlink="http://www.w3.org/1999/xlink" width="6px" height="9px" xmlns="http://www.w3.org/2000/svg">
  <g transform="matrix(1 0 0 1 -362 -22 )">
    <path d="M 4.060546875 4.060546875  C 4.353515625 3.767578125  4.5 3.4140625  4.5 3  C 4.5 2.5859375  4.353515625 2.232421875  4.060546875 1.939453125  C 3.767578125 1.646484375  3.4140625 1.5  3 1.5  C 2.5859375 1.5  2.232421875 1.646484375  1.939453125 1.939453125  C 1.646484375 2.232421875  1.5 2.5859375  1.5 3  C 1.5 3.4140625  1.646484375 3.767578125  1.939453125 4.060546875  C 2.232421875 4.353515625  2.5859375 4.5  3 4.5  C 3.4140625 4.5  3.767578125 4.353515625  4.060546875 4.060546875  Z M 5.12109375 0.87890625  C 5.70703125 1.46484375  6 2.171875  6 3  C 6 3.42578125  5.935546875 3.775390625  5.806640625 4.048828125  L 3.673828125 8.583984375  C 3.611328125 8.712890625  3.5185546875 8.814453125  3.3955078125 8.888671875  C 3.2724609375 8.962890625  3.140625 9  3 9  C 2.859375 9  2.7275390625 8.962890625  2.6044921875 8.888671875  C 2.4814453125 8.814453125  2.390625 8.712890625  2.33203125 8.583984375  L 0.193359375 4.048828125  C 0.064453125 3.775390625  0 3.42578125  0 3  C 0 2.171875  0.29296875 1.46484375  0.87890625 0.87890625  C 1.46484375 0.29296875  2.171875 0  3 0  C 3.828125 0  4.53515625 0.29296875  5.12109375 0.87890625  Z " fill-rule="nonzero" fill="#ffffff" stroke="none" transform="matrix(1 0 0 1 362 22 )" />
  </g>
</svg>