<?xml version="1.0" encoding="utf-8"?>
<svg version="1.1" xmlns:xlink="http://www.w3.org/1999/xlink" width="132px" height="154px" xmlns="http://www.w3.org/2000/svg">
  <g transform="matrix(1 0 0 1 -18 -71 )">
    <path d="M 19 75  A 3 3 0 0 1 22 72 L 146 72  A 3 3 0 0 1 149 75 L 149 221  A 3 3 0 0 1 146 224 L 22 224  A 3 3 0 0 1 19 221 L 19 75  Z " fill-rule="nonzero" fill="#000000" stroke="none" fill-opacity="0.0196078431372549" />
    <path d="M 18.5 75  A 3.5 3.5 0 0 1 22 71.5 L 146 71.5  A 3.5 3.5 0 0 1 149.5 75 L 149.5 221  A 3.5 3.5 0 0 1 146 224.5 L 22 224.5  A 3.5 3.5 0 0 1 18.5 221 L 18.5 75  Z " stroke-width="1" stroke-dasharray="9,4" stroke="#d9d9d9" fill="none" stroke-dashoffset="0.5" />
  </g>
</svg>