<?xml version="1.0" encoding="utf-8"?>
<svg version="1.1" xmlns:xlink="http://www.w3.org/1999/xlink" width="100px" height="60px" xmlns="http://www.w3.org/2000/svg">
  <defs>
    <linearGradient gradientUnits="userSpaceOnUse" x1="1922" y1="31" x2="1922" y2="91" id="LinearGradient666">
      <stop id="Stop667" stop-color="#ffffff" offset="0" />
      <stop id="Stop668" stop-color="#f2f2f2" offset="0" />
      <stop id="Stop669" stop-color="#e4e4e4" offset="1" />
      <stop id="Stop670" stop-color="#ffffff" offset="1" />
    </linearGradient>
  </defs>
  <g transform="matrix(1 0 0 1 -1872 -31 )">
    <path d="M 1922 31  C 1950 31  1972 44.2  1972 61  C 1972 77.8  1950 91  1922 91  C 1894 91  1872 77.8  1872 61  C 1872 44.2  1894 31  1922 31  Z " fill-rule="nonzero" fill="url(#LinearGradient666)" stroke="none" />
    <path d="M 1922 31.5  C 1949.72 31.5  1971.5 44.48  1971.5 61  C 1971.5 77.52  1949.72 90.5  1922 90.5  C 1894.28 90.5  1872.5 77.52  1872.5 61  C 1872.5 44.48  1894.28 31.5  1922 31.5  Z " stroke-width="1" stroke="#797979" fill="none" />
  </g>
</svg>