<?xml version="1.0" encoding="utf-8"?>
<svg version="1.1" xmlns:xlink="http://www.w3.org/1999/xlink" width="32px" height="26px" xmlns="http://www.w3.org/2000/svg">
  <g transform="matrix(1 0 0 1 -332 -96 )">
    <path d="M 27.4002478314746 14.8542478565861  C 27.4134655101198 14.8812678617823  27.4200743494424 14.9217978695765  27.4200743494424 14.9758378799688  L 27.4200743494424 24.7030397505846  C 27.4200743494424 25.0542998181346  27.2945064023131 25.3582748765913  27.0433705080545 25.6149649259548  C 26.792234613796 25.8716549753183  26.4948368442792 26  26.1511771995043 26  L 18.5377942998761 26  L 18.5377942998761 18.2182385035074  L 13.4622057001239 18.2182385035074  L 13.4622057001239 26  L 5.84882280049566 26  C 5.50516315572078 26  5.20776538620405 25.8716549753183  4.95662949194548 25.6149649259548  C 4.70549359768691 25.3582748765913  4.57992565055762 25.0542998181346  4.57992565055762 24.7030397505846  L 4.57992565055762 14.9758378799688  C 4.57992565055762 14.9623278773707  4.58323007021892 14.9420628734736  4.58983890954151 14.9150428682775  C 4.59644774886411 14.8880228630813  4.5997521685254 14.8677578591842  4.5997521685254 14.8542478565861  L 16 5.24863600935308  L 27.4002478314746 14.8542478565861  Z M 31.9801734820322 13.1013250194856  C 31.9933911606774 13.2837100545596  31.9471292854193 13.442452585087  31.8413878562577 13.5775526110678  L 30.6121437422553 15.0771628994544  C 30.5064023130938 15.1987529228371  30.3676166873193 15.2730579371265  30.1957868649318 15.3000779423227  L 30.1363073110285 15.3000779423227  C 29.9644774886411 15.3000779423227  29.8256918628666 15.2527929332294  29.7199504337051 15.1582229150429  L 16 3.46531566640686  L 2.28004956629492 15.1582229150429  C 2.12143742255266 15.2663029358275  1.96282527881041 15.3135879449208  1.80421313506815 15.3000779423227  C 1.63238331268071 15.2730579371265  1.49359768690624 15.1987529228371  1.38785625774473 15.0771628994544  L 0.158612143742255 13.5775526110678  C 0.0528707145807518 13.442452585087  0.00660883932259402 13.2837100545596  0.0198265179677819 13.1013250194856  C 0.0330441966129699 12.9189399844115  0.105741429161504 12.7737074564822  0.237918215613383 12.6656274356976  L 14.4931846344486 0.52689010132502  C 14.9161503510946 0.175630033775004  15.4184221396117 0  16 0  C 16.5815778603883 0  17.0838496489054 0.175630033775004  17.5068153655514 0.52689010132502  L 22.3444857496902 4.66095089633671  L 22.3444857496902 0.709275136399063  C 22.3444857496902 0.520135100025978  22.4039653035936 0.364770070148089  22.5229244114002 0.243180046765395  C 22.6418835192069 0.121590023382697  22.7938868236266 0.0607950116913487  22.9789343246592 0.0607950116913487  L 26.7856257744734 0.0607950116913487  C 26.970673275506 0.0607950116913487  27.1226765799256 0.121590023382697  27.2416356877323 0.243180046765395  C 27.360594795539 0.364770070148089  27.4200743494424 0.520135100025978  27.4200743494424 0.709275136399063  L 27.4200743494424 8.97739672642245  L 31.7620817843866 12.6656274356976  C 31.8942585708385 12.7737074564822  31.966955803387 12.9189399844115  31.9801734820322 13.1013250194856  Z " fill-rule="nonzero" fill="#1890ff" stroke="none" transform="matrix(1 0 0 1 332 96 )" />
  </g>
</svg>