<?xml version="1.0" encoding="utf-8"?>
<svg version="1.1" xmlns:xlink="http://www.w3.org/1999/xlink" width="15px" height="13px" xmlns="http://www.w3.org/2000/svg">
  <g transform="matrix(1 0 0 1 -4649 -4390 )">
    <path d="M 4.53425480769231 11.7350852272727  C 4.58834134615385 11.6796875  4.61538461538462 11.6089015151515  4.61538461538462 11.5227272727273  L 4.61538461538462 9.75  C 4.61538461538462 9.66382575757575  4.58834134615385 9.59303977272727  4.53425480769231 9.53764204545455  C 4.48016826923077 9.48224431818182  4.41105769230769 9.45454545454546  4.32692307692308 9.45454545454546  L 1.44230769230769 9.45454545454546  C 1.35817307692308 9.45454545454546  1.2890625 9.48224431818182  1.23497596153846 9.53764204545455  C 1.18088942307692 9.59303977272727  1.15384615384615 9.66382575757575  1.15384615384615 9.75  L 1.15384615384615 11.5227272727273  C 1.15384615384615 11.6089015151515  1.18088942307692 11.6796875  1.23497596153846 11.7350852272727  C 1.2890625 11.7904829545455  1.35817307692308 11.8181818181818  1.44230769230769 11.8181818181818  L 4.32692307692308 11.8181818181818  C 4.41105769230769 11.8181818181818  4.48016826923077 11.7904829545455  4.53425480769231 11.7350852272727  Z M 4.53425480769231 8.18963068181818  C 4.58834134615385 8.13423295454546  4.61538461538462 8.06344696969697  4.61538461538462 7.97727272727273  L 4.61538461538462 6.20454545454546  C 4.61538461538462 6.11837121212121  4.58834134615385 6.04758522727273  4.53425480769231 5.9921875  C 4.48016826923077 5.93678977272727  4.41105769230769 5.90909090909091  4.32692307692308 5.90909090909091  L 1.44230769230769 5.90909090909091  C 1.35817307692308 5.90909090909091  1.2890625 5.93678977272727  1.23497596153846 5.9921875  C 1.18088942307692 6.04758522727273  1.15384615384615 6.11837121212121  1.15384615384615 6.20454545454546  L 1.15384615384615 7.97727272727273  C 1.15384615384615 8.06344696969697  1.18088942307692 8.13423295454546  1.23497596153846 8.18963068181818  C 1.2890625 8.24502840909091  1.35817307692308 8.27272727272727  1.44230769230769 8.27272727272727  L 4.32692307692308 8.27272727272727  C 4.41105769230769 8.27272727272727  4.48016826923077 8.24502840909091  4.53425480769231 8.18963068181818  Z M 9.14963942307692 11.7350852272727  C 9.20372596153846 11.6796875  9.23076923076923 11.6089015151515  9.23076923076923 11.5227272727273  L 9.23076923076923 9.75  C 9.23076923076923 9.66382575757575  9.20372596153846 9.59303977272727  9.14963942307692 9.53764204545455  C 9.09555288461539 9.48224431818182  9.02644230769231 9.45454545454546  8.94230769230769 9.45454545454546  L 6.05769230769231 9.45454545454546  C 5.97355769230769 9.45454545454546  5.90444711538462 9.48224431818182  5.85036057692308 9.53764204545455  C 5.79627403846154 9.59303977272727  5.76923076923077 9.66382575757575  5.76923076923077 9.75  L 5.76923076923077 11.5227272727273  C 5.76923076923077 11.6089015151515  5.79627403846154 11.6796875  5.85036057692308 11.7350852272727  C 5.90444711538462 11.7904829545455  5.97355769230769 11.8181818181818  6.05769230769231 11.8181818181818  L 8.94230769230769 11.8181818181818  C 9.02644230769231 11.8181818181818  9.09555288461539 11.7904829545455  9.14963942307692 11.7350852272727  Z M 4.53425480769231 4.64417613636364  C 4.58834134615385 4.58877840909091  4.61538461538462 4.51799242424242  4.61538461538462 4.43181818181818  L 4.61538461538462 2.65909090909091  C 4.61538461538462 2.57291666666666  4.58834134615385 2.50213068181818  4.53425480769231 2.44673295454546  C 4.48016826923077 2.39133522727273  4.41105769230769 2.36363636363636  4.32692307692308 2.36363636363636  L 1.44230769230769 2.36363636363636  C 1.35817307692308 2.36363636363636  1.2890625 2.39133522727273  1.23497596153846 2.44673295454546  C 1.18088942307692 2.50213068181818  1.15384615384615 2.57291666666666  1.15384615384615 2.65909090909091  L 1.15384615384615 4.43181818181818  C 1.15384615384615 4.51799242424242  1.18088942307692 4.58877840909091  1.23497596153846 4.64417613636364  C 1.2890625 4.69957386363636  1.35817307692308 4.72727272727273  1.44230769230769 4.72727272727273  L 4.32692307692308 4.72727272727273  C 4.41105769230769 4.72727272727273  4.48016826923077 4.69957386363636  4.53425480769231 4.64417613636364  Z M 9.14963942307692 8.18963068181818  C 9.20372596153846 8.13423295454546  9.23076923076923 8.06344696969697  9.23076923076923 7.97727272727273  L 9.23076923076923 6.20454545454546  C 9.23076923076923 6.11837121212121  9.20372596153846 6.04758522727273  9.14963942307692 5.9921875  C 9.09555288461539 5.93678977272727  9.02644230769231 5.90909090909091  8.94230769230769 5.90909090909091  L 6.05769230769231 5.90909090909091  C 5.97355769230769 5.90909090909091  5.90444711538462 5.93678977272727  5.85036057692308 5.9921875  C 5.79627403846154 6.04758522727273  5.76923076923077 6.11837121212121  5.76923076923077 6.20454545454546  L 5.76923076923077 7.97727272727273  C 5.76923076923077 8.06344696969697  5.79627403846154 8.13423295454546  5.85036057692308 8.18963068181818  C 5.90444711538462 8.24502840909091  5.97355769230769 8.27272727272727  6.05769230769231 8.27272727272727  L 8.94230769230769 8.27272727272727  C 9.02644230769231 8.27272727272727  9.09555288461539 8.24502840909091  9.14963942307692 8.18963068181818  Z M 13.7650240384615 11.7350852272727  C 13.8191105769231 11.6796875  13.8461538461538 11.6089015151515  13.8461538461538 11.5227272727273  L 13.8461538461538 9.75  C 13.8461538461538 9.66382575757575  13.8191105769231 9.59303977272727  13.7650240384615 9.53764204545455  C 13.7109375 9.48224431818182  13.6418269230769 9.45454545454546  13.5576923076923 9.45454545454546  L 10.6730769230769 9.45454545454546  C 10.5889423076923 9.45454545454546  10.5198317307692 9.48224431818182  10.4657451923077 9.53764204545455  C 10.4116586538462 9.59303977272727  10.3846153846154 9.66382575757575  10.3846153846154 9.75  L 10.3846153846154 11.5227272727273  C 10.3846153846154 11.6089015151515  10.4116586538462 11.6796875  10.4657451923077 11.7350852272727  C 10.5198317307692 11.7904829545455  10.5889423076923 11.8181818181818  10.6730769230769 11.8181818181818  L 13.5576923076923 11.8181818181818  C 13.6418269230769 11.8181818181818  13.7109375 11.7904829545455  13.7650240384615 11.7350852272727  Z M 9.14963942307692 4.64417613636364  C 9.20372596153846 4.58877840909091  9.23076923076923 4.51799242424242  9.23076923076923 4.43181818181818  L 9.23076923076923 2.65909090909091  C 9.23076923076923 2.57291666666666  9.20372596153846 2.50213068181818  9.14963942307692 2.44673295454546  C 9.09555288461539 2.39133522727273  9.02644230769231 2.36363636363636  8.94230769230769 2.36363636363636  L 6.05769230769231 2.36363636363636  C 5.97355769230769 2.36363636363636  5.90444711538462 2.39133522727273  5.85036057692308 2.44673295454546  C 5.79627403846154 2.50213068181818  5.76923076923077 2.57291666666666  5.76923076923077 2.65909090909091  L 5.76923076923077 4.43181818181818  C 5.76923076923077 4.51799242424242  5.79627403846154 4.58877840909091  5.85036057692308 4.64417613636364  C 5.90444711538462 4.69957386363636  5.97355769230769 4.72727272727273  6.05769230769231 4.72727272727273  L 8.94230769230769 4.72727272727273  C 9.02644230769231 4.72727272727273  9.09555288461539 4.69957386363636  9.14963942307692 4.64417613636364  Z M 13.7650240384615 8.18963068181818  C 13.8191105769231 8.13423295454546  13.8461538461538 8.06344696969697  13.8461538461538 7.97727272727273  L 13.8461538461538 6.20454545454546  C 13.8461538461538 6.11837121212121  13.8191105769231 6.04758522727273  13.7650240384615 5.9921875  C 13.7109375 5.93678977272727  13.6418269230769 5.90909090909091  13.5576923076923 5.90909090909091  L 10.6730769230769 5.90909090909091  C 10.5889423076923 5.90909090909091  10.5198317307692 5.93678977272727  10.4657451923077 5.9921875  C 10.4116586538462 6.04758522727273  10.3846153846154 6.11837121212121  10.3846153846154 6.20454545454546  L 10.3846153846154 7.97727272727273  C 10.3846153846154 8.06344696969697  10.4116586538462 8.13423295454546  10.4657451923077 8.18963068181818  C 10.5198317307692 8.24502840909091  10.5889423076923 8.27272727272727  10.6730769230769 8.27272727272727  L 13.5576923076923 8.27272727272727  C 13.6418269230769 8.27272727272727  13.7109375 8.24502840909091  13.7650240384615 8.18963068181818  Z M 13.7650240384615 4.64417613636364  C 13.8191105769231 4.58877840909091  13.8461538461538 4.51799242424242  13.8461538461538 4.43181818181818  L 13.8461538461538 2.65909090909091  C 13.8461538461538 2.57291666666666  13.8191105769231 2.50213068181818  13.7650240384615 2.44673295454546  C 13.7109375 2.39133522727273  13.6418269230769 2.36363636363636  13.5576923076923 2.36363636363636  L 10.6730769230769 2.36363636363636  C 10.5889423076923 2.36363636363636  10.5198317307692 2.39133522727273  10.4657451923077 2.44673295454546  C 10.4116586538462 2.50213068181818  10.3846153846154 2.57291666666666  10.3846153846154 2.65909090909091  L 10.3846153846154 4.43181818181818  C 10.3846153846154 4.51799242424242  10.4116586538462 4.58877840909091  10.4657451923077 4.64417613636364  C 10.5198317307692 4.69957386363636  10.5889423076923 4.72727272727273  10.6730769230769 4.72727272727273  L 13.5576923076923 4.72727272727273  C 13.6418269230769 4.72727272727273  13.7109375 4.69957386363636  13.7650240384615 4.64417613636364  Z M 14.5763221153846 0.433948863636363  C 14.8587740384615 0.723248106060605  15 1.07102272727273  15 1.47727272727273  L 15 11.5227272727273  C 15 11.9289772727273  14.8587740384615 12.2767518939394  14.5763221153846 12.5660511363636  C 14.2938701923077 12.8553503787879  13.9543269230769 13  13.5576923076923 13  L 1.44230769230769 13  C 1.04567307692308 13  0.706129807692308 12.8553503787879  0.423677884615385 12.5660511363636  C 0.141225961538462 12.2767518939394  0 11.9289772727273  0 11.5227272727273  L 0 1.47727272727273  C 0 1.07102272727273  0.141225961538462 0.723248106060605  0.423677884615385 0.433948863636363  C 0.706129807692308 0.14464962121212  1.04567307692308 0  1.44230769230769 0  L 13.5576923076923 0  C 13.9543269230769 0  14.2938701923077 0.14464962121212  14.5763221153846 0.433948863636363  Z " fill-rule="nonzero" fill="#1890ff" stroke="none" transform="matrix(1 0 0 1 4649 4390 )" />
  </g>
</svg>