<?xml version="1.0" encoding="utf-8"?>
<svg version="1.1" xmlns:xlink="http://www.w3.org/1999/xlink" width="15px" height="17px" xmlns="http://www.w3.org/2000/svg">
  <g transform="matrix(1 0 0 1 -768 -1708 )">
    <path d="M 12.5 4.85714285714286  C 12.5 5.78683035714286  12.2428385416667 6.6469494047619  11.728515625 7.4375  C 12.0345052083333 7.52604166666667  12.3258463541667 7.64620535714286  12.6025390625 7.79799107142857  C 12.8792317708333 7.94977678571429  13.1689453125 8.18061755952381  13.4716796875 8.49051339285714  C 13.7744140625 8.80040922619048  14.033203125 9.16564360119048  14.248046875 9.58621651785714  C 14.462890625 10.0067894345238  14.6419270833333 10.5506882440476  14.78515625 11.2179129464286  C 14.9283854166667 11.8851376488095  15 12.6329985119048  15 13.4614955357143  C 15 14.4354538690476  14.6744791666667 15.2686941964286  14.0234375 15.9612165178571  C 13.3723958333333 16.6537388392857  12.587890625 17  11.669921875 17  L 3.330078125 17  C 2.412109375 17  1.62760416666667 16.6537388392857  0.9765625 15.9612165178571  C 0.325520833333333 15.2686941964286  0 14.4354538690476  0 13.4614955357143  C 0 12.6329985119048  0.0716145833333333 11.8851376488095  0.21484375 11.2179129464286  C 0.358072916666667 10.5506882440476  0.537109375 10.0067894345238  0.751953125 9.58621651785714  C 0.966796875 9.16564360119048  1.2255859375 8.80040922619048  1.5283203125 8.49051339285714  C 1.8310546875 8.18061755952381  2.12076822916667 7.94977678571429  2.3974609375 7.79799107142857  C 2.67415364583333 7.64620535714286  2.96549479166667 7.52604166666667  3.271484375 7.4375  C 2.75716145833333 6.6469494047619  2.5 5.78683035714286  2.5 4.85714285714286  C 2.5 4.19940476190476  2.6318359375 3.57170758928571  2.8955078125 2.97405133928571  C 3.1591796875 2.37639508928571  3.515625 1.859375  3.96484375 1.42299107142857  C 4.4140625 0.986607142857143  4.9462890625 0.640345982142857  5.5615234375 0.384207589285714  C 6.1767578125 0.128069196428571  6.82291666666667 0  7.5 0  C 8.17708333333333 0  8.8232421875 0.128069196428571  9.4384765625 0.384207589285714  C 10.0537109375 0.640345982142857  10.5859375 0.986607142857143  11.03515625 1.42299107142857  C 11.484375 1.859375  11.8408203125 2.37639508928571  12.1044921875 2.97405133928571  C 12.3681640625 3.57170758928571  12.5 4.19940476190476  12.5 4.85714285714286  Z M 10.1513671875 2.28152901785714  C 9.4189453125 1.57003348214286  8.53515625 1.21428571428571  7.5 1.21428571428571  C 6.46484375 1.21428571428571  5.5810546875 1.57003348214286  4.8486328125 2.28152901785714  C 4.1162109375 2.99302455357143  3.75 3.8515625  3.75 4.85714285714286  C 3.75 5.86272321428571  4.1162109375 6.72126116071429  4.8486328125 7.43275669642857  C 5.5810546875 8.14425223214286  6.46484375 8.5  7.5 8.5  C 8.53515625 8.5  9.4189453125 8.14425223214286  10.1513671875 7.43275669642857  C 10.8837890625 6.72126116071429  11.25 5.86272321428571  11.25 4.85714285714286  C 11.25 3.8515625  10.8837890625 2.99302455357143  10.1513671875 2.28152901785714  Z M 3.330078125 15.7857142857143  L 11.669921875 15.7857142857143  C 12.2428385416667 15.7857142857143  12.7327473958333 15.5596168154762  13.1396484375 15.107421875  C 13.5465494791667 14.6552269345238  13.75 14.1065848214286  13.75 13.4614955357143  C 13.75 11.949962797619  13.4944661458333 10.7578125  12.9833984375 9.88504464285714  C 12.4723307291667 9.01227678571429  11.73828125 8.55375744047619  10.78125 8.50948660714286  C 9.83723958333333 9.31268601190476  8.74348958333333 9.71428571428571  7.5 9.71428571428571  C 6.25651041666667 9.71428571428571  5.16276041666667 9.31268601190476  4.21875 8.50948660714286  C 3.26171875 8.55375744047619  2.52766927083333 9.01227678571429  2.0166015625 9.88504464285714  C 1.50553385416667 10.7578125  1.25 11.949962797619  1.25 13.4614955357143  C 1.25 14.1065848214286  1.45345052083333 14.6552269345238  1.8603515625 15.107421875  C 2.26725260416667 15.5596168154762  2.75716145833333 15.7857142857143  3.330078125 15.7857142857143  Z " fill-rule="nonzero" fill="#c0c0c0" stroke="none" transform="matrix(1 0 0 1 768 1708 )" />
  </g>
</svg>