<?xml version="1.0" encoding="utf-8"?>
<svg version="1.1" xmlns:xlink="http://www.w3.org/1999/xlink" width="155px" height="35px" xmlns="http://www.w3.org/2000/svg">
  <defs>
    <mask fill="white" id="clip97">
      <path d="M 0 31  L 0 4  C 0 1.76  1.51555555555556 0  3.44444444444444 0  L 92.5921052631587 0  L 151.555555555556 0  C 153.484444444444 0  155 1.76  155 4  L 155 31  C 155 33.24  153.484444444444 35  151.555555555556 35  L 3.44444444444444 35  C 1.51555555555556 35  0 33.24  0 31  Z " fill-rule="evenodd" />
    </mask>
  </defs>
  <g transform="matrix(1 0 0 1 -343 -3 )">
    <path d="M 0 31  L 0 4  C 0 1.76  1.51555555555556 0  3.44444444444444 0  L 92.5921052631587 0  L 151.555555555556 0  C 153.484444444444 0  155 1.76  155 4  L 155 31  C 155 33.24  153.484444444444 35  151.555555555556 35  L 3.44444444444444 35  C 1.51555555555556 35  0 33.24  0 31  Z " fill-rule="nonzero" fill="#ffffff" stroke="none" transform="matrix(1 0 0 1 343 3 )" />
    <path d="M 0 31  L 0 4  C 0 1.76  1.51555555555556 0  3.44444444444444 0  L 92.5921052631587 0  L 151.555555555556 0  C 153.484444444444 0  155 1.76  155 4  L 155 31  C 155 33.24  153.484444444444 35  151.555555555556 35  L 3.44444444444444 35  C 1.51555555555556 35  0 33.24  0 31  Z " stroke-width="2" stroke="#d9d9d9" fill="none" transform="matrix(1 0 0 1 343 3 )" mask="url(#clip97)" />
  </g>
</svg>