<?xml version="1.0" encoding="utf-8"?>
<svg version="1.1" xmlns:xlink="http://www.w3.org/1999/xlink" width="130px" height="79px" xmlns="http://www.w3.org/2000/svg">
  <g transform="matrix(1 0 0 1 -670 -763 )">
    <path d="M 671 767  A 3 3 0 0 1 674 764 L 796 764  A 3 3 0 0 1 799 767 L 799 838  A 3 3 0 0 1 796 841 L 674 841  A 3 3 0 0 1 671 838 L 671 767  Z " fill-rule="nonzero" fill="#ffffff" stroke="none" />
    <path d="M 670.5 767  A 3.5 3.5 0 0 1 674 763.5 L 796 763.5  A 3.5 3.5 0 0 1 799.5 767 L 799.5 838  A 3.5 3.5 0 0 1 796 841.5 L 674 841.5  A 3.5 3.5 0 0 1 670.5 838 L 670.5 767  Z " stroke-width="1" stroke-dasharray="9,4" stroke="#d9d9d9" fill="none" stroke-dashoffset="0.5" />
  </g>
</svg>