<?xml version="1.0" encoding="utf-8"?>
<svg version="1.1" xmlns:xlink="http://www.w3.org/1999/xlink" width="132px" height="175px" xmlns="http://www.w3.org/2000/svg">
  <g transform="matrix(1 0 0 1 -28 -362 )">
    <path d="M 29 366  A 3 3 0 0 1 32 363 L 156 363  A 3 3 0 0 1 159 366 L 159 533  A 3 3 0 0 1 156 536 L 32 536  A 3 3 0 0 1 29 533 L 29 366  Z " fill-rule="nonzero" fill="#000000" stroke="none" fill-opacity="0.0196078431372549" />
    <path d="M 28.5 366  A 3.5 3.5 0 0 1 32 362.5 L 156 362.5  A 3.5 3.5 0 0 1 159.5 366 L 159.5 533  A 3.5 3.5 0 0 1 156 536.5 L 32 536.5  A 3.5 3.5 0 0 1 28.5 533 L 28.5 366  Z " stroke-width="1" stroke-dasharray="9,4" stroke="#d9d9d9" fill="none" stroke-dashoffset="0.5" />
  </g>
</svg>