<?xml version="1.0" encoding="utf-8"?>
<svg version="1.1" xmlns:xlink="http://www.w3.org/1999/xlink" width="104px" height="104px" xmlns="http://www.w3.org/2000/svg">
  <g transform="matrix(1 0 0 1 -553 -763 )">
    <path d="M 554 767  A 3 3 0 0 1 557 764 L 653 764  A 3 3 0 0 1 656 767 L 656 863  A 3 3 0 0 1 653 866 L 557 866  A 3 3 0 0 1 554 863 L 554 767  Z " fill-rule="nonzero" fill="#000000" stroke="none" fill-opacity="0.0196078431372549" />
    <path d="M 553.5 767  A 3.5 3.5 0 0 1 557 763.5 L 653 763.5  A 3.5 3.5 0 0 1 656.5 767 L 656.5 863  A 3.5 3.5 0 0 1 653 866.5 L 557 866.5  A 3.5 3.5 0 0 1 553.5 863 L 553.5 767  Z " stroke-width="1" stroke-dasharray="9,4" stroke="#d9d9d9" fill="none" stroke-dashoffset="0.5" />
  </g>
</svg>