<?xml version="1.0" encoding="utf-8"?>
<svg version="1.1" xmlns:xlink="http://www.w3.org/1999/xlink" width="14px" height="7px" xmlns="http://www.w3.org/2000/svg">
  <g transform="matrix(1 0 0 1 -1085 -210 )">
    <path d="M 13.740234375 0.230902777777778  C 13.9134114583333 0.384837962962962  14 0.567129629629628  14 0.777777777777778  C 14 0.988425925925925  13.9134114583333 1.17071759259259  13.740234375 1.32465277777778  L 7.615234375 6.76909722222222  C 7.44205729166667 6.92303240740741  7.23697916666667 7  7 7  C 6.76302083333333 7  6.55794270833333 6.92303240740741  6.384765625 6.76909722222222  L 0.259765625 1.32465277777778  C 0.0865885416666667 1.17071759259259  0 0.988425925925925  0 0.777777777777778  C 0 0.567129629629628  0.0865885416666667 0.384837962962962  0.259765625 0.230902777777778  C 0.432942708333333 0.0769675925925917  0.638020833333333 0  0.875 0  L 13.125 0  C 13.3619791666667 0  13.5670572916667 0.0769675925925917  13.740234375 0.230902777777778  Z " fill-rule="nonzero" fill="#9e9c9c" stroke="none" transform="matrix(1 0 0 1 1085 210 )" />
  </g>
</svg>