<?xml version="1.0" encoding="utf-8"?>
<svg version="1.1" xmlns:xlink="http://www.w3.org/1999/xlink" width="17px" height="9px" xmlns="http://www.w3.org/2000/svg">
  <g transform="matrix(1 0 0 1 -1026 -17 )">
    <path d="M 16.6845703125 7.296875  C 16.8948567708333 7.49479166666666  17 7.72916666666666  17 8  C 17 8.27083333333333  16.8948567708333 8.50520833333333  16.6845703125 8.703125  C 16.4742838541667 8.90104166666667  16.2252604166667 9  15.9375 9  L 1.0625 9  C 0.774739583333333 9  0.525716145833333 8.90104166666667  0.3154296875 8.703125  C 0.105143229166667 8.50520833333333  0 8.27083333333333  0 8  C 0 7.72916666666666  0.105143229166667 7.49479166666666  0.3154296875 7.296875  L 7.7529296875 0.296875  C 7.96321614583333 0.0989583333333321  8.21223958333333 0  8.5 0  C 8.78776041666667 0  9.03678385416667 0.0989583333333321  9.2470703125 0.296875  L 16.6845703125 7.296875  Z " fill-rule="nonzero" fill="#1890ff" stroke="none" transform="matrix(1 0 0 1 1026 17 )" />
  </g>
</svg>