<?xml version="1.0" encoding="utf-8"?>
<svg version="1.1" xmlns:xlink="http://www.w3.org/1999/xlink" width="40px" height="50px" xmlns="http://www.w3.org/2000/svg">
  <defs>
    <filter x="1368px" y="176px" width="40px" height="50px" filterUnits="userSpaceOnUse" id="filter91">
      <feOffset dx="1" dy="1" in="SourceAlpha" result="shadowOffsetInner" />
      <feGaussianBlur stdDeviation="2.5" in="shadowOffsetInner" result="shadowGaussian" />
      <feComposite in2="shadowGaussian" operator="atop" in="SourceAlpha" result="shadowComposite" />
      <feColorMatrix type="matrix" values="0 0 0 0 0  0 0 0 0 0  0 0 0 0 0  0 0 0 0.698039215686274 0  " in="shadowComposite" />
    </filter>
    <g id="widget92">
      <path d="M 1387 219.036928468354  C 1381.2 209.40734059591  1372.5 203.629587872444  1372.5 194  C 1372.5 188.985714285714  1375.4 180.5  1387 180.5  C 1398.6 180.5  1401.5 188.985714285714  1401.5 194  C 1401.5 203.629587872444  1392.8 209.40734059591  1387 219.036928468354  Z " fill-rule="nonzero" fill="#009dd9" stroke="none" />
      <path d="M 1387 220  C 1381 210  1372 204  1372 194  C 1372 188.8  1375 180  1387 180  C 1399 180  1402 188.8  1402 194  C 1402 204  1393 210  1387 220  Z M 1387 218.073856936707  C 1392.6 208.81468119182  1401 203.259175744887  1401 194  C 1401 189.171428571429  1398.2 181  1387 181  C 1375.8 181  1373 189.171428571429  1373 194  C 1373 203.259175744887  1381.4 208.81468119182  1387 218.073856936707  Z " fill-rule="nonzero" fill="#ffffff" stroke="none" />
    </g>
  </defs>
  <g transform="matrix(1 0 0 1 -1368 -176 )">
    <use xlink:href="#widget92" filter="url(#filter91)" />
    <use xlink:href="#widget92" />
  </g>
</svg>